<mxfile host="app.diagrams.net" agent="Mozilla/5.0 (Windows NT 10.0; Win64; x64) AppleWebKit/537.36 (KHTML, like Gecko) Chrome/141.0.0.0 Safari/537.36 Edg/141.0.0.0" version="28.2.8">
  <diagram name="第 1 页" id="9vneWb4raVePWjLC0m0B">
    <mxGraphModel dx="2836" dy="2757" grid="1" gridSize="10" guides="1" tooltips="1" connect="1" arrows="1" fold="1" page="1" pageScale="1" pageWidth="827" pageHeight="1169" math="0" shadow="0">
      <root>
        <mxCell id="0" />
        <mxCell id="1" parent="0" />
        <mxCell id="Il4vGaOlUkTPHnECqSVA-256" value="" style="rounded=0;whiteSpace=wrap;html=1;fillColor=none;dashed=1;strokeWidth=6;strokeColor=light-dark(#febc06, #ededed);" vertex="1" parent="1">
          <mxGeometry x="1710" y="-450" width="530" height="525" as="geometry" />
        </mxCell>
        <mxCell id="Il4vGaOlUkTPHnECqSVA-230" value="" style="rounded=0;whiteSpace=wrap;html=1;fillColor=none;dashed=1;strokeWidth=6;strokeColor=light-dark(#006af5, #ededed);" vertex="1" parent="1">
          <mxGeometry x="80" y="-545" width="1570" height="655" as="geometry" />
        </mxCell>
        <mxCell id="Il4vGaOlUkTPHnECqSVA-231" value="" style="rounded=0;whiteSpace=wrap;html=1;fillColor=none;dashed=1;strokeWidth=6;strokeColor=light-dark(#006af5, #ededed);" vertex="1" parent="1">
          <mxGeometry x="80" y="160" width="1570" height="760" as="geometry" />
        </mxCell>
        <mxCell id="Il4vGaOlUkTPHnECqSVA-1" value="&lt;font style=&quot;font-size: 24px;&quot;&gt;&lt;b&gt;Q_1&lt;/b&gt;&lt;/font&gt;" style="text;html=1;whiteSpace=wrap;strokeColor=none;fillColor=none;align=center;verticalAlign=middle;rounded=0;" vertex="1" parent="1">
          <mxGeometry x="290" y="220" width="60" height="30" as="geometry" />
        </mxCell>
        <mxCell id="Il4vGaOlUkTPHnECqSVA-2" value="" style="shape=cross;whiteSpace=wrap;html=1;rotation=45;strokeColor=#000000;gradientColor=none;fillColor=light-dark(#0a0a0a, #ededed);" vertex="1" parent="1">
          <mxGeometry x="459.99533905932736" y="314.9953390593273" width="50" height="50" as="geometry" />
        </mxCell>
        <mxCell id="Il4vGaOlUkTPHnECqSVA-3" value="&lt;span style=&quot;font-size: 24px;&quot;&gt;&lt;b&gt;K^T_2&lt;/b&gt;&lt;/span&gt;" style="text;html=1;whiteSpace=wrap;strokeColor=none;fillColor=none;align=center;verticalAlign=middle;rounded=0;" vertex="1" parent="1">
          <mxGeometry x="590" y="220" width="60" height="30" as="geometry" />
        </mxCell>
        <mxCell id="Il4vGaOlUkTPHnECqSVA-4" value="" style="shape=table;startSize=0;container=1;collapsible=0;childLayout=tableLayout;fontSize=16;fillColor=#bac8d3;strokeColor=#23445d;" vertex="1" parent="1">
          <mxGeometry x="770" y="275" width="180" height="120" as="geometry" />
        </mxCell>
        <mxCell id="Il4vGaOlUkTPHnECqSVA-5" value="" style="shape=tableRow;horizontal=0;startSize=0;swimlaneHead=0;swimlaneBody=0;strokeColor=inherit;top=0;left=0;bottom=0;right=0;collapsible=0;dropTarget=0;fillColor=none;points=[[0,0.5],[1,0.5]];portConstraint=eastwest;fontSize=24;fontStyle=1" vertex="1" parent="Il4vGaOlUkTPHnECqSVA-4">
          <mxGeometry width="180" height="40" as="geometry" />
        </mxCell>
        <mxCell id="Il4vGaOlUkTPHnECqSVA-6" value="s14" style="shape=partialRectangle;html=1;whiteSpace=wrap;connectable=0;strokeColor=inherit;overflow=hidden;fillColor=none;top=0;left=0;bottom=0;right=0;pointerEvents=1;fontSize=24;fontStyle=1" vertex="1" parent="Il4vGaOlUkTPHnECqSVA-5">
          <mxGeometry width="60" height="40" as="geometry">
            <mxRectangle width="60" height="40" as="alternateBounds" />
          </mxGeometry>
        </mxCell>
        <mxCell id="Il4vGaOlUkTPHnECqSVA-7" value="s15" style="shape=partialRectangle;html=1;whiteSpace=wrap;connectable=0;strokeColor=inherit;overflow=hidden;fillColor=none;top=0;left=0;bottom=0;right=0;pointerEvents=1;fontSize=24;fontStyle=1" vertex="1" parent="Il4vGaOlUkTPHnECqSVA-5">
          <mxGeometry x="60" width="60" height="40" as="geometry">
            <mxRectangle width="60" height="40" as="alternateBounds" />
          </mxGeometry>
        </mxCell>
        <mxCell id="Il4vGaOlUkTPHnECqSVA-8" value="s16" style="shape=partialRectangle;html=1;whiteSpace=wrap;connectable=0;strokeColor=inherit;overflow=hidden;fillColor=none;top=0;left=0;bottom=0;right=0;pointerEvents=1;fontSize=24;fontStyle=1" vertex="1" parent="Il4vGaOlUkTPHnECqSVA-5">
          <mxGeometry x="120" width="60" height="40" as="geometry">
            <mxRectangle width="60" height="40" as="alternateBounds" />
          </mxGeometry>
        </mxCell>
        <mxCell id="Il4vGaOlUkTPHnECqSVA-9" value="" style="shape=tableRow;horizontal=0;startSize=0;swimlaneHead=0;swimlaneBody=0;strokeColor=inherit;top=0;left=0;bottom=0;right=0;collapsible=0;dropTarget=0;fillColor=none;points=[[0,0.5],[1,0.5]];portConstraint=eastwest;fontSize=16;" vertex="1" parent="Il4vGaOlUkTPHnECqSVA-4">
          <mxGeometry y="40" width="180" height="40" as="geometry" />
        </mxCell>
        <mxCell id="Il4vGaOlUkTPHnECqSVA-10" value="" style="shape=partialRectangle;html=1;whiteSpace=wrap;connectable=0;strokeColor=inherit;overflow=hidden;fillColor=none;top=0;left=0;bottom=0;right=0;pointerEvents=1;fontSize=16;" vertex="1" parent="Il4vGaOlUkTPHnECqSVA-9">
          <mxGeometry width="60" height="40" as="geometry">
            <mxRectangle width="60" height="40" as="alternateBounds" />
          </mxGeometry>
        </mxCell>
        <mxCell id="Il4vGaOlUkTPHnECqSVA-11" value="" style="shape=partialRectangle;html=1;whiteSpace=wrap;connectable=0;strokeColor=inherit;overflow=hidden;fillColor=none;top=0;left=0;bottom=0;right=0;pointerEvents=1;fontSize=16;" vertex="1" parent="Il4vGaOlUkTPHnECqSVA-9">
          <mxGeometry x="60" width="60" height="40" as="geometry">
            <mxRectangle width="60" height="40" as="alternateBounds" />
          </mxGeometry>
        </mxCell>
        <mxCell id="Il4vGaOlUkTPHnECqSVA-12" value="" style="shape=partialRectangle;html=1;whiteSpace=wrap;connectable=0;strokeColor=inherit;overflow=hidden;fillColor=none;top=0;left=0;bottom=0;right=0;pointerEvents=1;fontSize=16;" vertex="1" parent="Il4vGaOlUkTPHnECqSVA-9">
          <mxGeometry x="120" width="60" height="40" as="geometry">
            <mxRectangle width="60" height="40" as="alternateBounds" />
          </mxGeometry>
        </mxCell>
        <mxCell id="Il4vGaOlUkTPHnECqSVA-13" value="" style="shape=tableRow;horizontal=0;startSize=0;swimlaneHead=0;swimlaneBody=0;strokeColor=inherit;top=0;left=0;bottom=0;right=0;collapsible=0;dropTarget=0;fillColor=none;points=[[0,0.5],[1,0.5]];portConstraint=eastwest;fontSize=16;" vertex="1" parent="Il4vGaOlUkTPHnECqSVA-4">
          <mxGeometry y="80" width="180" height="40" as="geometry" />
        </mxCell>
        <mxCell id="Il4vGaOlUkTPHnECqSVA-14" value="" style="shape=partialRectangle;html=1;whiteSpace=wrap;connectable=0;strokeColor=inherit;overflow=hidden;fillColor=none;top=0;left=0;bottom=0;right=0;pointerEvents=1;fontSize=16;" vertex="1" parent="Il4vGaOlUkTPHnECqSVA-13">
          <mxGeometry width="60" height="40" as="geometry">
            <mxRectangle width="60" height="40" as="alternateBounds" />
          </mxGeometry>
        </mxCell>
        <mxCell id="Il4vGaOlUkTPHnECqSVA-15" value="" style="shape=partialRectangle;html=1;whiteSpace=wrap;connectable=0;strokeColor=inherit;overflow=hidden;fillColor=none;top=0;left=0;bottom=0;right=0;pointerEvents=1;fontSize=16;" vertex="1" parent="Il4vGaOlUkTPHnECqSVA-13">
          <mxGeometry x="60" width="60" height="40" as="geometry">
            <mxRectangle width="60" height="40" as="alternateBounds" />
          </mxGeometry>
        </mxCell>
        <mxCell id="Il4vGaOlUkTPHnECqSVA-16" value="" style="shape=partialRectangle;html=1;whiteSpace=wrap;connectable=0;strokeColor=inherit;overflow=hidden;fillColor=none;top=0;left=0;bottom=0;right=0;pointerEvents=1;fontSize=16;" vertex="1" parent="Il4vGaOlUkTPHnECqSVA-13">
          <mxGeometry x="120" width="60" height="40" as="geometry">
            <mxRectangle width="60" height="40" as="alternateBounds" />
          </mxGeometry>
        </mxCell>
        <mxCell id="Il4vGaOlUkTPHnECqSVA-17" value="&lt;font style=&quot;font-size: 24px;&quot;&gt;&lt;b&gt;S_1_2&lt;/b&gt;&lt;/font&gt;" style="text;html=1;whiteSpace=wrap;strokeColor=none;fillColor=none;align=center;verticalAlign=middle;rounded=0;" vertex="1" parent="1">
          <mxGeometry x="830" y="235" width="60" height="30" as="geometry" />
        </mxCell>
        <mxCell id="Il4vGaOlUkTPHnECqSVA-18" value="" style="group" vertex="1" connectable="0" parent="1">
          <mxGeometry x="720" y="320" width="40" height="30" as="geometry" />
        </mxCell>
        <mxCell id="Il4vGaOlUkTPHnECqSVA-19" value="" style="rounded=0;whiteSpace=wrap;html=1;fillColor=#000000;" vertex="1" parent="Il4vGaOlUkTPHnECqSVA-18">
          <mxGeometry width="40" height="10" as="geometry" />
        </mxCell>
        <mxCell id="Il4vGaOlUkTPHnECqSVA-20" value="" style="rounded=0;whiteSpace=wrap;html=1;fillColor=#000000;" vertex="1" parent="Il4vGaOlUkTPHnECqSVA-18">
          <mxGeometry y="20" width="40" height="10" as="geometry" />
        </mxCell>
        <mxCell id="Il4vGaOlUkTPHnECqSVA-21" value="" style="shape=cross;whiteSpace=wrap;html=1;rotation=45;strokeColor=#000000;gradientColor=none;fillColor=light-dark(#0a0a0a, #ededed);" vertex="1" parent="1">
          <mxGeometry x="589.9953390593273" y="654.9953390593273" width="50" height="50" as="geometry" />
        </mxCell>
        <mxCell id="Il4vGaOlUkTPHnECqSVA-22" value="&lt;font style=&quot;font-size: 24px;&quot;&gt;&lt;b&gt;V_2&lt;/b&gt;&lt;/font&gt;" style="text;html=1;whiteSpace=wrap;strokeColor=none;fillColor=none;align=center;verticalAlign=middle;rounded=0;" vertex="1" parent="1">
          <mxGeometry x="760" y="590" width="60" height="30" as="geometry" />
        </mxCell>
        <mxCell id="Il4vGaOlUkTPHnECqSVA-23" value="" style="group" vertex="1" connectable="0" parent="1">
          <mxGeometry x="960" y="670" width="60" height="30" as="geometry" />
        </mxCell>
        <mxCell id="Il4vGaOlUkTPHnECqSVA-24" value="" style="rounded=0;whiteSpace=wrap;html=1;fillColor=#000000;" vertex="1" parent="Il4vGaOlUkTPHnECqSVA-23">
          <mxGeometry width="60" height="10" as="geometry" />
        </mxCell>
        <mxCell id="Il4vGaOlUkTPHnECqSVA-25" value="" style="rounded=0;whiteSpace=wrap;html=1;fillColor=#000000;" vertex="1" parent="Il4vGaOlUkTPHnECqSVA-23">
          <mxGeometry y="20" width="60" height="10" as="geometry" />
        </mxCell>
        <mxCell id="Il4vGaOlUkTPHnECqSVA-26" value="" style="shape=table;startSize=0;container=1;collapsible=0;childLayout=tableLayout;fontSize=16;fillColor=#ffcccc;strokeColor=#36393d;" vertex="1" parent="1">
          <mxGeometry x="1040" y="560" width="550" height="290" as="geometry" />
        </mxCell>
        <mxCell id="Il4vGaOlUkTPHnECqSVA-27" value="" style="shape=tableRow;horizontal=0;startSize=0;swimlaneHead=0;swimlaneBody=0;strokeColor=inherit;top=0;left=0;bottom=0;right=0;collapsible=0;dropTarget=0;fillColor=none;points=[[0,0.5],[1,0.5]];portConstraint=eastwest;fontSize=16;" vertex="1" parent="Il4vGaOlUkTPHnECqSVA-26">
          <mxGeometry width="550" height="189" as="geometry" />
        </mxCell>
        <mxCell id="Il4vGaOlUkTPHnECqSVA-28" value="" style="shape=partialRectangle;html=1;whiteSpace=wrap;connectable=0;strokeColor=inherit;overflow=hidden;fillColor=none;top=0;left=0;bottom=0;right=0;pointerEvents=1;fontSize=16;" vertex="1" parent="Il4vGaOlUkTPHnECqSVA-27">
          <mxGeometry width="311" height="189" as="geometry">
            <mxRectangle width="311" height="189" as="alternateBounds" />
          </mxGeometry>
        </mxCell>
        <mxCell id="Il4vGaOlUkTPHnECqSVA-29" value="" style="shape=partialRectangle;html=1;whiteSpace=wrap;connectable=0;strokeColor=inherit;overflow=hidden;fillColor=none;top=0;left=0;bottom=0;right=0;pointerEvents=1;fontSize=16;" vertex="1" parent="Il4vGaOlUkTPHnECqSVA-27">
          <mxGeometry x="311" width="80" height="189" as="geometry">
            <mxRectangle width="80" height="189" as="alternateBounds" />
          </mxGeometry>
        </mxCell>
        <mxCell id="Il4vGaOlUkTPHnECqSVA-30" value="" style="shape=partialRectangle;html=1;whiteSpace=wrap;connectable=0;strokeColor=inherit;overflow=hidden;fillColor=none;top=0;left=0;bottom=0;right=0;pointerEvents=1;fontSize=16;" vertex="1" parent="Il4vGaOlUkTPHnECqSVA-27">
          <mxGeometry x="391" width="79" height="189" as="geometry">
            <mxRectangle width="79" height="189" as="alternateBounds" />
          </mxGeometry>
        </mxCell>
        <mxCell id="Il4vGaOlUkTPHnECqSVA-31" style="shape=partialRectangle;html=1;whiteSpace=wrap;connectable=0;strokeColor=inherit;overflow=hidden;fillColor=none;top=0;left=0;bottom=0;right=0;pointerEvents=1;fontSize=16;" vertex="1" parent="Il4vGaOlUkTPHnECqSVA-27">
          <mxGeometry x="470" width="80" height="189" as="geometry">
            <mxRectangle width="80" height="189" as="alternateBounds" />
          </mxGeometry>
        </mxCell>
        <mxCell id="Il4vGaOlUkTPHnECqSVA-32" value="" style="shape=tableRow;horizontal=0;startSize=0;swimlaneHead=0;swimlaneBody=0;strokeColor=inherit;top=0;left=0;bottom=0;right=0;collapsible=0;dropTarget=0;fillColor=none;points=[[0,0.5],[1,0.5]];portConstraint=eastwest;fontSize=16;" vertex="1" parent="Il4vGaOlUkTPHnECqSVA-26">
          <mxGeometry y="189" width="550" height="51" as="geometry" />
        </mxCell>
        <mxCell id="Il4vGaOlUkTPHnECqSVA-33" value="" style="shape=partialRectangle;html=1;whiteSpace=wrap;connectable=0;strokeColor=inherit;overflow=hidden;fillColor=none;top=0;left=0;bottom=0;right=0;pointerEvents=1;fontSize=16;" vertex="1" parent="Il4vGaOlUkTPHnECqSVA-32">
          <mxGeometry width="311" height="51" as="geometry">
            <mxRectangle width="311" height="51" as="alternateBounds" />
          </mxGeometry>
        </mxCell>
        <mxCell id="Il4vGaOlUkTPHnECqSVA-34" value="" style="shape=partialRectangle;html=1;whiteSpace=wrap;connectable=0;strokeColor=inherit;overflow=hidden;fillColor=none;top=0;left=0;bottom=0;right=0;pointerEvents=1;fontSize=16;" vertex="1" parent="Il4vGaOlUkTPHnECqSVA-32">
          <mxGeometry x="311" width="80" height="51" as="geometry">
            <mxRectangle width="80" height="51" as="alternateBounds" />
          </mxGeometry>
        </mxCell>
        <mxCell id="Il4vGaOlUkTPHnECqSVA-35" value="" style="shape=partialRectangle;html=1;whiteSpace=wrap;connectable=0;strokeColor=inherit;overflow=hidden;fillColor=none;top=0;left=0;bottom=0;right=0;pointerEvents=1;fontSize=16;" vertex="1" parent="Il4vGaOlUkTPHnECqSVA-32">
          <mxGeometry x="391" width="79" height="51" as="geometry">
            <mxRectangle width="79" height="51" as="alternateBounds" />
          </mxGeometry>
        </mxCell>
        <mxCell id="Il4vGaOlUkTPHnECqSVA-36" style="shape=partialRectangle;html=1;whiteSpace=wrap;connectable=0;strokeColor=inherit;overflow=hidden;fillColor=none;top=0;left=0;bottom=0;right=0;pointerEvents=1;fontSize=16;" vertex="1" parent="Il4vGaOlUkTPHnECqSVA-32">
          <mxGeometry x="470" width="80" height="51" as="geometry">
            <mxRectangle width="80" height="51" as="alternateBounds" />
          </mxGeometry>
        </mxCell>
        <mxCell id="Il4vGaOlUkTPHnECqSVA-37" value="" style="shape=tableRow;horizontal=0;startSize=0;swimlaneHead=0;swimlaneBody=0;strokeColor=inherit;top=0;left=0;bottom=0;right=0;collapsible=0;dropTarget=0;fillColor=none;points=[[0,0.5],[1,0.5]];portConstraint=eastwest;fontSize=16;" vertex="1" parent="Il4vGaOlUkTPHnECqSVA-26">
          <mxGeometry y="240" width="550" height="50" as="geometry" />
        </mxCell>
        <mxCell id="Il4vGaOlUkTPHnECqSVA-38" value="" style="shape=partialRectangle;html=1;whiteSpace=wrap;connectable=0;strokeColor=inherit;overflow=hidden;fillColor=none;top=0;left=0;bottom=0;right=0;pointerEvents=1;fontSize=16;" vertex="1" parent="Il4vGaOlUkTPHnECqSVA-37">
          <mxGeometry width="311" height="50" as="geometry">
            <mxRectangle width="311" height="50" as="alternateBounds" />
          </mxGeometry>
        </mxCell>
        <mxCell id="Il4vGaOlUkTPHnECqSVA-39" value="" style="shape=partialRectangle;html=1;whiteSpace=wrap;connectable=0;strokeColor=inherit;overflow=hidden;fillColor=none;top=0;left=0;bottom=0;right=0;pointerEvents=1;fontSize=16;" vertex="1" parent="Il4vGaOlUkTPHnECqSVA-37">
          <mxGeometry x="311" width="80" height="50" as="geometry">
            <mxRectangle width="80" height="50" as="alternateBounds" />
          </mxGeometry>
        </mxCell>
        <mxCell id="Il4vGaOlUkTPHnECqSVA-40" value="" style="shape=partialRectangle;html=1;whiteSpace=wrap;connectable=0;strokeColor=inherit;overflow=hidden;fillColor=none;top=0;left=0;bottom=0;right=0;pointerEvents=1;fontSize=16;" vertex="1" parent="Il4vGaOlUkTPHnECqSVA-37">
          <mxGeometry x="391" width="79" height="50" as="geometry">
            <mxRectangle width="79" height="50" as="alternateBounds" />
          </mxGeometry>
        </mxCell>
        <mxCell id="Il4vGaOlUkTPHnECqSVA-41" style="shape=partialRectangle;html=1;whiteSpace=wrap;connectable=0;strokeColor=inherit;overflow=hidden;fillColor=none;top=0;left=0;bottom=0;right=0;pointerEvents=1;fontSize=16;" vertex="1" parent="Il4vGaOlUkTPHnECqSVA-37">
          <mxGeometry x="470" width="80" height="50" as="geometry">
            <mxRectangle width="80" height="50" as="alternateBounds" />
          </mxGeometry>
        </mxCell>
        <mxCell id="Il4vGaOlUkTPHnECqSVA-42" value="&lt;font style=&quot;font-size: 24px;&quot;&gt;&lt;b&gt;O_1_shard_2&lt;/b&gt;&lt;/font&gt;" style="text;html=1;whiteSpace=wrap;strokeColor=none;fillColor=none;align=center;verticalAlign=middle;rounded=0;" vertex="1" parent="1">
          <mxGeometry x="1135" y="520" width="60" height="30" as="geometry" />
        </mxCell>
        <mxCell id="Il4vGaOlUkTPHnECqSVA-45" value="" style="shape=flexArrow;endArrow=classic;html=1;rounded=0;fontStyle=0;labelBackgroundColor=#000000;fontColor=none;noLabel=1;fillColor=light-dark(#0a0a0a, #ededed);" edge="1" parent="1">
          <mxGeometry width="50" height="50" relative="1" as="geometry">
            <mxPoint x="970" y="334.23" as="sourcePoint" />
            <mxPoint x="1050" y="334.23" as="targetPoint" />
          </mxGeometry>
        </mxCell>
        <mxCell id="Il4vGaOlUkTPHnECqSVA-46" value="" style="shape=table;startSize=0;container=1;collapsible=0;childLayout=tableLayout;fontSize=16;fillColor=#bac8d3;strokeColor=#23445d;" vertex="1" parent="1">
          <mxGeometry x="90" y="570" width="460" height="310" as="geometry" />
        </mxCell>
        <mxCell id="Il4vGaOlUkTPHnECqSVA-47" value="" style="shape=tableRow;horizontal=0;startSize=0;swimlaneHead=0;swimlaneBody=0;strokeColor=inherit;top=0;left=0;bottom=0;right=0;collapsible=0;dropTarget=0;fillColor=none;points=[[0,0.5],[1,0.5]];portConstraint=eastwest;fontSize=24;fontStyle=1" vertex="1" parent="Il4vGaOlUkTPHnECqSVA-46">
          <mxGeometry width="460" height="104" as="geometry" />
        </mxCell>
        <mxCell id="Il4vGaOlUkTPHnECqSVA-48" value="e^(s14-m)&lt;div&gt;——&lt;br&gt;&lt;div&gt;&lt;b&gt;l&lt;/b&gt;&lt;/div&gt;&lt;/div&gt;" style="shape=partialRectangle;html=1;whiteSpace=wrap;connectable=0;strokeColor=inherit;overflow=hidden;fillColor=none;top=0;left=0;bottom=0;right=0;pointerEvents=1;fontSize=24;fontStyle=1" vertex="1" parent="Il4vGaOlUkTPHnECqSVA-47">
          <mxGeometry width="154" height="104" as="geometry">
            <mxRectangle width="154" height="104" as="alternateBounds" />
          </mxGeometry>
        </mxCell>
        <mxCell id="Il4vGaOlUkTPHnECqSVA-49" value="e^(s15-m)&lt;div&gt;——&lt;br&gt;&lt;div&gt;&lt;b&gt;l&lt;/b&gt;&lt;/div&gt;&lt;/div&gt;" style="shape=partialRectangle;html=1;whiteSpace=wrap;connectable=0;strokeColor=inherit;overflow=hidden;fillColor=none;top=0;left=0;bottom=0;right=0;pointerEvents=1;fontSize=24;fontStyle=1" vertex="1" parent="Il4vGaOlUkTPHnECqSVA-47">
          <mxGeometry x="154" width="152" height="104" as="geometry">
            <mxRectangle width="152" height="104" as="alternateBounds" />
          </mxGeometry>
        </mxCell>
        <mxCell id="Il4vGaOlUkTPHnECqSVA-50" value="e^(s16-m)&lt;div&gt;——&lt;br&gt;&lt;div&gt;&lt;b&gt;l&lt;/b&gt;&lt;/div&gt;&lt;/div&gt;" style="shape=partialRectangle;html=1;whiteSpace=wrap;connectable=0;strokeColor=inherit;overflow=hidden;fillColor=none;top=0;left=0;bottom=0;right=0;pointerEvents=1;fontSize=24;fontStyle=1" vertex="1" parent="Il4vGaOlUkTPHnECqSVA-47">
          <mxGeometry x="306" width="154" height="104" as="geometry">
            <mxRectangle width="154" height="104" as="alternateBounds" />
          </mxGeometry>
        </mxCell>
        <mxCell id="Il4vGaOlUkTPHnECqSVA-51" value="" style="shape=tableRow;horizontal=0;startSize=0;swimlaneHead=0;swimlaneBody=0;strokeColor=inherit;top=0;left=0;bottom=0;right=0;collapsible=0;dropTarget=0;fillColor=none;points=[[0,0.5],[1,0.5]];portConstraint=eastwest;fontSize=16;" vertex="1" parent="Il4vGaOlUkTPHnECqSVA-46">
          <mxGeometry y="104" width="460" height="102" as="geometry" />
        </mxCell>
        <mxCell id="Il4vGaOlUkTPHnECqSVA-52" value="" style="shape=partialRectangle;html=1;whiteSpace=wrap;connectable=0;strokeColor=inherit;overflow=hidden;fillColor=none;top=0;left=0;bottom=0;right=0;pointerEvents=1;fontSize=16;" vertex="1" parent="Il4vGaOlUkTPHnECqSVA-51">
          <mxGeometry width="154" height="102" as="geometry">
            <mxRectangle width="154" height="102" as="alternateBounds" />
          </mxGeometry>
        </mxCell>
        <mxCell id="Il4vGaOlUkTPHnECqSVA-53" value="" style="shape=partialRectangle;html=1;whiteSpace=wrap;connectable=0;strokeColor=inherit;overflow=hidden;fillColor=none;top=0;left=0;bottom=0;right=0;pointerEvents=1;fontSize=16;" vertex="1" parent="Il4vGaOlUkTPHnECqSVA-51">
          <mxGeometry x="154" width="152" height="102" as="geometry">
            <mxRectangle width="152" height="102" as="alternateBounds" />
          </mxGeometry>
        </mxCell>
        <mxCell id="Il4vGaOlUkTPHnECqSVA-54" value="" style="shape=partialRectangle;html=1;whiteSpace=wrap;connectable=0;strokeColor=inherit;overflow=hidden;fillColor=none;top=0;left=0;bottom=0;right=0;pointerEvents=1;fontSize=16;" vertex="1" parent="Il4vGaOlUkTPHnECqSVA-51">
          <mxGeometry x="306" width="154" height="102" as="geometry">
            <mxRectangle width="154" height="102" as="alternateBounds" />
          </mxGeometry>
        </mxCell>
        <mxCell id="Il4vGaOlUkTPHnECqSVA-55" value="" style="shape=tableRow;horizontal=0;startSize=0;swimlaneHead=0;swimlaneBody=0;strokeColor=inherit;top=0;left=0;bottom=0;right=0;collapsible=0;dropTarget=0;fillColor=none;points=[[0,0.5],[1,0.5]];portConstraint=eastwest;fontSize=16;" vertex="1" parent="Il4vGaOlUkTPHnECqSVA-46">
          <mxGeometry y="206" width="460" height="104" as="geometry" />
        </mxCell>
        <mxCell id="Il4vGaOlUkTPHnECqSVA-56" value="" style="shape=partialRectangle;html=1;whiteSpace=wrap;connectable=0;strokeColor=inherit;overflow=hidden;fillColor=none;top=0;left=0;bottom=0;right=0;pointerEvents=1;fontSize=16;" vertex="1" parent="Il4vGaOlUkTPHnECqSVA-55">
          <mxGeometry width="154" height="104" as="geometry">
            <mxRectangle width="154" height="104" as="alternateBounds" />
          </mxGeometry>
        </mxCell>
        <mxCell id="Il4vGaOlUkTPHnECqSVA-57" value="" style="shape=partialRectangle;html=1;whiteSpace=wrap;connectable=0;strokeColor=inherit;overflow=hidden;fillColor=none;top=0;left=0;bottom=0;right=0;pointerEvents=1;fontSize=16;" vertex="1" parent="Il4vGaOlUkTPHnECqSVA-55">
          <mxGeometry x="154" width="152" height="104" as="geometry">
            <mxRectangle width="152" height="104" as="alternateBounds" />
          </mxGeometry>
        </mxCell>
        <mxCell id="Il4vGaOlUkTPHnECqSVA-58" value="" style="shape=partialRectangle;html=1;whiteSpace=wrap;connectable=0;strokeColor=inherit;overflow=hidden;fillColor=none;top=0;left=0;bottom=0;right=0;pointerEvents=1;fontSize=16;" vertex="1" parent="Il4vGaOlUkTPHnECqSVA-55">
          <mxGeometry x="306" width="154" height="104" as="geometry">
            <mxRectangle width="154" height="104" as="alternateBounds" />
          </mxGeometry>
        </mxCell>
        <mxCell id="Il4vGaOlUkTPHnECqSVA-59" value="&lt;font style=&quot;font-size: 24px;&quot;&gt;&lt;b&gt;P_1_2&lt;/b&gt;&lt;/font&gt;" style="text;html=1;whiteSpace=wrap;strokeColor=none;fillColor=none;align=center;verticalAlign=middle;rounded=0;" vertex="1" parent="1">
          <mxGeometry x="270" y="530" width="60" height="30" as="geometry" />
        </mxCell>
        <mxCell id="Il4vGaOlUkTPHnECqSVA-60" value="&lt;span style=&quot;font-size: 24px;&quot;&gt;&lt;b&gt;P16&lt;/b&gt;&lt;/span&gt;&lt;br&gt;&lt;div style=&quot;font-size: 24px; font-weight: 700;&quot;&gt;&lt;span style=&quot;white-space: pre;&quot;&gt;&#x9;&lt;/span&gt;——×&lt;span style=&quot;font-size: 23px;&quot;&gt;V61&lt;/span&gt;&lt;br&gt;&lt;div&gt;l&lt;/div&gt;&lt;/div&gt;" style="text;html=1;whiteSpace=wrap;strokeColor=none;fillColor=none;align=center;verticalAlign=middle;rounded=0;" vertex="1" parent="1">
          <mxGeometry x="1005" y="660" width="190" height="90" as="geometry" />
        </mxCell>
        <mxCell id="Il4vGaOlUkTPHnECqSVA-61" value="&lt;span style=&quot;font-size: 24px; font-weight: 700;&quot;&gt;P14&lt;/span&gt;&lt;div style=&quot;font-size: 24px; font-weight: 700;&quot;&gt;&lt;span style=&quot;white-space: pre;&quot;&gt;&#x9;&lt;/span&gt;——×&lt;span style=&quot;font-size: 23px;&quot;&gt;V41&lt;/span&gt;&lt;br&gt;&lt;div&gt;l&lt;/div&gt;&lt;/div&gt;" style="text;html=1;whiteSpace=wrap;strokeColor=none;fillColor=none;align=center;verticalAlign=middle;rounded=0;" vertex="1" parent="1">
          <mxGeometry x="1000" y="575" width="190" height="90" as="geometry" />
        </mxCell>
        <mxCell id="Il4vGaOlUkTPHnECqSVA-62" value="&lt;span style=&quot;font-size: 24px;&quot;&gt;&lt;b&gt;P15&lt;/b&gt;&lt;/span&gt;&lt;br&gt;&lt;div style=&quot;font-size: 24px; font-weight: 700;&quot;&gt;&lt;span style=&quot;white-space: pre;&quot;&gt;&#x9;&lt;/span&gt;——×&lt;span style=&quot;font-size: 23px;&quot;&gt;V51&lt;/span&gt;&lt;br&gt;&lt;div&gt;l&lt;/div&gt;&lt;/div&gt;" style="text;html=1;whiteSpace=wrap;strokeColor=none;fillColor=none;align=center;verticalAlign=middle;rounded=0;" vertex="1" parent="1">
          <mxGeometry x="1150" y="575" width="190" height="90" as="geometry" />
        </mxCell>
        <mxCell id="Il4vGaOlUkTPHnECqSVA-63" value="&lt;b style=&quot;&quot;&gt;&lt;font style=&quot;font-size: 31px;&quot;&gt;+&lt;/font&gt;&lt;/b&gt;" style="text;html=1;whiteSpace=wrap;strokeColor=none;fillColor=none;align=center;verticalAlign=middle;rounded=0;" vertex="1" parent="1">
          <mxGeometry x="1160" y="593.75" width="70" height="55" as="geometry" />
        </mxCell>
        <mxCell id="Il4vGaOlUkTPHnECqSVA-64" value="&lt;b style=&quot;&quot;&gt;&lt;font style=&quot;font-size: 31px;&quot;&gt;+&lt;/font&gt;&lt;/b&gt;" style="text;html=1;whiteSpace=wrap;strokeColor=none;fillColor=none;align=center;verticalAlign=middle;rounded=0;" vertex="1" parent="1">
          <mxGeometry x="1300" y="600" width="80" height="42.5" as="geometry" />
        </mxCell>
        <mxCell id="Il4vGaOlUkTPHnECqSVA-65" value="" style="shape=table;startSize=0;container=1;collapsible=0;childLayout=tableLayout;fontSize=22;fillColor=#d5e8d4;strokeColor=#82b366;fontStyle=1" vertex="1" parent="1">
          <mxGeometry x="200" y="290" width="240" height="120" as="geometry" />
        </mxCell>
        <mxCell id="Il4vGaOlUkTPHnECqSVA-66" value="" style="shape=tableRow;horizontal=0;startSize=0;swimlaneHead=0;swimlaneBody=0;strokeColor=inherit;top=0;left=0;bottom=0;right=0;collapsible=0;dropTarget=0;fillColor=none;points=[[0,0.5],[1,0.5]];portConstraint=eastwest;fontSize=22;fontStyle=1" vertex="1" parent="Il4vGaOlUkTPHnECqSVA-65">
          <mxGeometry width="240" height="40" as="geometry" />
        </mxCell>
        <mxCell id="Il4vGaOlUkTPHnECqSVA-67" value="" style="shape=partialRectangle;html=1;whiteSpace=wrap;connectable=0;strokeColor=inherit;overflow=hidden;fillColor=none;top=0;left=0;bottom=0;right=0;pointerEvents=1;fontSize=22;fontStyle=1" vertex="1" parent="Il4vGaOlUkTPHnECqSVA-66">
          <mxGeometry width="60" height="40" as="geometry">
            <mxRectangle width="60" height="40" as="alternateBounds" />
          </mxGeometry>
        </mxCell>
        <mxCell id="Il4vGaOlUkTPHnECqSVA-68" value="" style="shape=partialRectangle;html=1;whiteSpace=wrap;connectable=0;strokeColor=inherit;overflow=hidden;fillColor=none;top=0;left=0;bottom=0;right=0;pointerEvents=1;fontSize=22;fontStyle=1" vertex="1" parent="Il4vGaOlUkTPHnECqSVA-66">
          <mxGeometry x="60" width="60" height="40" as="geometry">
            <mxRectangle width="60" height="40" as="alternateBounds" />
          </mxGeometry>
        </mxCell>
        <mxCell id="Il4vGaOlUkTPHnECqSVA-69" value="" style="shape=partialRectangle;html=1;whiteSpace=wrap;connectable=0;strokeColor=inherit;overflow=hidden;fillColor=none;top=0;left=0;bottom=0;right=0;pointerEvents=1;fontSize=22;fontStyle=1" vertex="1" parent="Il4vGaOlUkTPHnECqSVA-66">
          <mxGeometry x="120" width="60" height="40" as="geometry">
            <mxRectangle width="60" height="40" as="alternateBounds" />
          </mxGeometry>
        </mxCell>
        <mxCell id="Il4vGaOlUkTPHnECqSVA-70" style="shape=partialRectangle;html=1;whiteSpace=wrap;connectable=0;strokeColor=inherit;overflow=hidden;fillColor=none;top=0;left=0;bottom=0;right=0;pointerEvents=1;fontSize=22;fontStyle=1" vertex="1" parent="Il4vGaOlUkTPHnECqSVA-66">
          <mxGeometry x="180" width="60" height="40" as="geometry">
            <mxRectangle width="60" height="40" as="alternateBounds" />
          </mxGeometry>
        </mxCell>
        <mxCell id="Il4vGaOlUkTPHnECqSVA-71" value="" style="shape=tableRow;horizontal=0;startSize=0;swimlaneHead=0;swimlaneBody=0;strokeColor=inherit;top=0;left=0;bottom=0;right=0;collapsible=0;dropTarget=0;fillColor=none;points=[[0,0.5],[1,0.5]];portConstraint=eastwest;fontSize=22;fontStyle=1" vertex="1" parent="Il4vGaOlUkTPHnECqSVA-65">
          <mxGeometry y="40" width="240" height="40" as="geometry" />
        </mxCell>
        <mxCell id="Il4vGaOlUkTPHnECqSVA-72" value="" style="shape=partialRectangle;html=1;whiteSpace=wrap;connectable=0;strokeColor=inherit;overflow=hidden;fillColor=none;top=0;left=0;bottom=0;right=0;pointerEvents=1;fontSize=22;fontStyle=1" vertex="1" parent="Il4vGaOlUkTPHnECqSVA-71">
          <mxGeometry width="60" height="40" as="geometry">
            <mxRectangle width="60" height="40" as="alternateBounds" />
          </mxGeometry>
        </mxCell>
        <mxCell id="Il4vGaOlUkTPHnECqSVA-73" value="" style="shape=partialRectangle;html=1;whiteSpace=wrap;connectable=0;strokeColor=inherit;overflow=hidden;fillColor=none;top=0;left=0;bottom=0;right=0;pointerEvents=1;fontSize=22;fontStyle=1" vertex="1" parent="Il4vGaOlUkTPHnECqSVA-71">
          <mxGeometry x="60" width="60" height="40" as="geometry">
            <mxRectangle width="60" height="40" as="alternateBounds" />
          </mxGeometry>
        </mxCell>
        <mxCell id="Il4vGaOlUkTPHnECqSVA-74" value="" style="shape=partialRectangle;html=1;whiteSpace=wrap;connectable=0;strokeColor=inherit;overflow=hidden;fillColor=none;top=0;left=0;bottom=0;right=0;pointerEvents=1;fontSize=22;fontStyle=1" vertex="1" parent="Il4vGaOlUkTPHnECqSVA-71">
          <mxGeometry x="120" width="60" height="40" as="geometry">
            <mxRectangle width="60" height="40" as="alternateBounds" />
          </mxGeometry>
        </mxCell>
        <mxCell id="Il4vGaOlUkTPHnECqSVA-75" style="shape=partialRectangle;html=1;whiteSpace=wrap;connectable=0;strokeColor=inherit;overflow=hidden;fillColor=none;top=0;left=0;bottom=0;right=0;pointerEvents=1;fontSize=22;fontStyle=1" vertex="1" parent="Il4vGaOlUkTPHnECqSVA-71">
          <mxGeometry x="180" width="60" height="40" as="geometry">
            <mxRectangle width="60" height="40" as="alternateBounds" />
          </mxGeometry>
        </mxCell>
        <mxCell id="Il4vGaOlUkTPHnECqSVA-76" value="" style="shape=tableRow;horizontal=0;startSize=0;swimlaneHead=0;swimlaneBody=0;strokeColor=inherit;top=0;left=0;bottom=0;right=0;collapsible=0;dropTarget=0;fillColor=none;points=[[0,0.5],[1,0.5]];portConstraint=eastwest;fontSize=22;fontStyle=1" vertex="1" parent="Il4vGaOlUkTPHnECqSVA-65">
          <mxGeometry y="80" width="240" height="40" as="geometry" />
        </mxCell>
        <mxCell id="Il4vGaOlUkTPHnECqSVA-77" value="" style="shape=partialRectangle;html=1;whiteSpace=wrap;connectable=0;strokeColor=inherit;overflow=hidden;fillColor=none;top=0;left=0;bottom=0;right=0;pointerEvents=1;fontSize=22;fontStyle=1" vertex="1" parent="Il4vGaOlUkTPHnECqSVA-76">
          <mxGeometry width="60" height="40" as="geometry">
            <mxRectangle width="60" height="40" as="alternateBounds" />
          </mxGeometry>
        </mxCell>
        <mxCell id="Il4vGaOlUkTPHnECqSVA-78" value="" style="shape=partialRectangle;html=1;whiteSpace=wrap;connectable=0;strokeColor=inherit;overflow=hidden;fillColor=none;top=0;left=0;bottom=0;right=0;pointerEvents=1;fontSize=22;fontStyle=1" vertex="1" parent="Il4vGaOlUkTPHnECqSVA-76">
          <mxGeometry x="60" width="60" height="40" as="geometry">
            <mxRectangle width="60" height="40" as="alternateBounds" />
          </mxGeometry>
        </mxCell>
        <mxCell id="Il4vGaOlUkTPHnECqSVA-79" value="" style="shape=partialRectangle;html=1;whiteSpace=wrap;connectable=0;strokeColor=inherit;overflow=hidden;fillColor=none;top=0;left=0;bottom=0;right=0;pointerEvents=1;fontSize=22;fontStyle=1" vertex="1" parent="Il4vGaOlUkTPHnECqSVA-76">
          <mxGeometry x="120" width="60" height="40" as="geometry">
            <mxRectangle width="60" height="40" as="alternateBounds" />
          </mxGeometry>
        </mxCell>
        <mxCell id="Il4vGaOlUkTPHnECqSVA-80" style="shape=partialRectangle;html=1;whiteSpace=wrap;connectable=0;strokeColor=inherit;overflow=hidden;fillColor=none;top=0;left=0;bottom=0;right=0;pointerEvents=1;fontSize=22;fontStyle=1" vertex="1" parent="Il4vGaOlUkTPHnECqSVA-76">
          <mxGeometry x="180" width="60" height="40" as="geometry">
            <mxRectangle width="60" height="40" as="alternateBounds" />
          </mxGeometry>
        </mxCell>
        <mxCell id="Il4vGaOlUkTPHnECqSVA-81" value="" style="shape=table;startSize=0;container=1;collapsible=0;childLayout=tableLayout;fontSize=16;fillColor=#f8cecc;strokeColor=#b85450;" vertex="1" parent="1">
          <mxGeometry x="530" y="270" width="180" height="160" as="geometry" />
        </mxCell>
        <mxCell id="Il4vGaOlUkTPHnECqSVA-82" value="" style="shape=tableRow;horizontal=0;startSize=0;swimlaneHead=0;swimlaneBody=0;strokeColor=inherit;top=0;left=0;bottom=0;right=0;collapsible=0;dropTarget=0;fillColor=none;points=[[0,0.5],[1,0.5]];portConstraint=eastwest;fontSize=16;" vertex="1" parent="Il4vGaOlUkTPHnECqSVA-81">
          <mxGeometry width="180" height="40" as="geometry" />
        </mxCell>
        <mxCell id="Il4vGaOlUkTPHnECqSVA-83" value="" style="shape=partialRectangle;html=1;whiteSpace=wrap;connectable=0;strokeColor=inherit;overflow=hidden;fillColor=none;top=0;left=0;bottom=0;right=0;pointerEvents=1;fontSize=16;" vertex="1" parent="Il4vGaOlUkTPHnECqSVA-82">
          <mxGeometry width="60" height="40" as="geometry">
            <mxRectangle width="60" height="40" as="alternateBounds" />
          </mxGeometry>
        </mxCell>
        <mxCell id="Il4vGaOlUkTPHnECqSVA-84" value="" style="shape=partialRectangle;html=1;whiteSpace=wrap;connectable=0;strokeColor=inherit;overflow=hidden;fillColor=none;top=0;left=0;bottom=0;right=0;pointerEvents=1;fontSize=16;" vertex="1" parent="Il4vGaOlUkTPHnECqSVA-82">
          <mxGeometry x="60" width="60" height="40" as="geometry">
            <mxRectangle width="60" height="40" as="alternateBounds" />
          </mxGeometry>
        </mxCell>
        <mxCell id="Il4vGaOlUkTPHnECqSVA-85" value="" style="shape=partialRectangle;html=1;whiteSpace=wrap;connectable=0;strokeColor=inherit;overflow=hidden;fillColor=none;top=0;left=0;bottom=0;right=0;pointerEvents=1;fontSize=16;" vertex="1" parent="Il4vGaOlUkTPHnECqSVA-82">
          <mxGeometry x="120" width="60" height="40" as="geometry">
            <mxRectangle width="60" height="40" as="alternateBounds" />
          </mxGeometry>
        </mxCell>
        <mxCell id="Il4vGaOlUkTPHnECqSVA-86" value="" style="shape=tableRow;horizontal=0;startSize=0;swimlaneHead=0;swimlaneBody=0;strokeColor=inherit;top=0;left=0;bottom=0;right=0;collapsible=0;dropTarget=0;fillColor=none;points=[[0,0.5],[1,0.5]];portConstraint=eastwest;fontSize=16;" vertex="1" parent="Il4vGaOlUkTPHnECqSVA-81">
          <mxGeometry y="40" width="180" height="40" as="geometry" />
        </mxCell>
        <mxCell id="Il4vGaOlUkTPHnECqSVA-87" value="" style="shape=partialRectangle;html=1;whiteSpace=wrap;connectable=0;strokeColor=inherit;overflow=hidden;fillColor=none;top=0;left=0;bottom=0;right=0;pointerEvents=1;fontSize=16;" vertex="1" parent="Il4vGaOlUkTPHnECqSVA-86">
          <mxGeometry width="60" height="40" as="geometry">
            <mxRectangle width="60" height="40" as="alternateBounds" />
          </mxGeometry>
        </mxCell>
        <mxCell id="Il4vGaOlUkTPHnECqSVA-88" value="" style="shape=partialRectangle;html=1;whiteSpace=wrap;connectable=0;strokeColor=inherit;overflow=hidden;fillColor=none;top=0;left=0;bottom=0;right=0;pointerEvents=1;fontSize=16;" vertex="1" parent="Il4vGaOlUkTPHnECqSVA-86">
          <mxGeometry x="60" width="60" height="40" as="geometry">
            <mxRectangle width="60" height="40" as="alternateBounds" />
          </mxGeometry>
        </mxCell>
        <mxCell id="Il4vGaOlUkTPHnECqSVA-89" value="" style="shape=partialRectangle;html=1;whiteSpace=wrap;connectable=0;strokeColor=inherit;overflow=hidden;fillColor=none;top=0;left=0;bottom=0;right=0;pointerEvents=1;fontSize=16;" vertex="1" parent="Il4vGaOlUkTPHnECqSVA-86">
          <mxGeometry x="120" width="60" height="40" as="geometry">
            <mxRectangle width="60" height="40" as="alternateBounds" />
          </mxGeometry>
        </mxCell>
        <mxCell id="Il4vGaOlUkTPHnECqSVA-90" value="" style="shape=tableRow;horizontal=0;startSize=0;swimlaneHead=0;swimlaneBody=0;strokeColor=inherit;top=0;left=0;bottom=0;right=0;collapsible=0;dropTarget=0;fillColor=none;points=[[0,0.5],[1,0.5]];portConstraint=eastwest;fontSize=16;" vertex="1" parent="Il4vGaOlUkTPHnECqSVA-81">
          <mxGeometry y="80" width="180" height="40" as="geometry" />
        </mxCell>
        <mxCell id="Il4vGaOlUkTPHnECqSVA-91" value="" style="shape=partialRectangle;html=1;whiteSpace=wrap;connectable=0;strokeColor=inherit;overflow=hidden;fillColor=none;top=0;left=0;bottom=0;right=0;pointerEvents=1;fontSize=16;" vertex="1" parent="Il4vGaOlUkTPHnECqSVA-90">
          <mxGeometry width="60" height="40" as="geometry">
            <mxRectangle width="60" height="40" as="alternateBounds" />
          </mxGeometry>
        </mxCell>
        <mxCell id="Il4vGaOlUkTPHnECqSVA-92" value="" style="shape=partialRectangle;html=1;whiteSpace=wrap;connectable=0;strokeColor=inherit;overflow=hidden;fillColor=none;top=0;left=0;bottom=0;right=0;pointerEvents=1;fontSize=16;" vertex="1" parent="Il4vGaOlUkTPHnECqSVA-90">
          <mxGeometry x="60" width="60" height="40" as="geometry">
            <mxRectangle width="60" height="40" as="alternateBounds" />
          </mxGeometry>
        </mxCell>
        <mxCell id="Il4vGaOlUkTPHnECqSVA-93" value="" style="shape=partialRectangle;html=1;whiteSpace=wrap;connectable=0;strokeColor=inherit;overflow=hidden;fillColor=none;top=0;left=0;bottom=0;right=0;pointerEvents=1;fontSize=16;" vertex="1" parent="Il4vGaOlUkTPHnECqSVA-90">
          <mxGeometry x="120" width="60" height="40" as="geometry">
            <mxRectangle width="60" height="40" as="alternateBounds" />
          </mxGeometry>
        </mxCell>
        <mxCell id="Il4vGaOlUkTPHnECqSVA-94" style="shape=tableRow;horizontal=0;startSize=0;swimlaneHead=0;swimlaneBody=0;strokeColor=inherit;top=0;left=0;bottom=0;right=0;collapsible=0;dropTarget=0;fillColor=none;points=[[0,0.5],[1,0.5]];portConstraint=eastwest;fontSize=16;" vertex="1" parent="Il4vGaOlUkTPHnECqSVA-81">
          <mxGeometry y="120" width="180" height="40" as="geometry" />
        </mxCell>
        <mxCell id="Il4vGaOlUkTPHnECqSVA-95" style="shape=partialRectangle;html=1;whiteSpace=wrap;connectable=0;strokeColor=inherit;overflow=hidden;fillColor=none;top=0;left=0;bottom=0;right=0;pointerEvents=1;fontSize=16;" vertex="1" parent="Il4vGaOlUkTPHnECqSVA-94">
          <mxGeometry width="60" height="40" as="geometry">
            <mxRectangle width="60" height="40" as="alternateBounds" />
          </mxGeometry>
        </mxCell>
        <mxCell id="Il4vGaOlUkTPHnECqSVA-96" style="shape=partialRectangle;html=1;whiteSpace=wrap;connectable=0;strokeColor=inherit;overflow=hidden;fillColor=none;top=0;left=0;bottom=0;right=0;pointerEvents=1;fontSize=16;" vertex="1" parent="Il4vGaOlUkTPHnECqSVA-94">
          <mxGeometry x="60" width="60" height="40" as="geometry">
            <mxRectangle width="60" height="40" as="alternateBounds" />
          </mxGeometry>
        </mxCell>
        <mxCell id="Il4vGaOlUkTPHnECqSVA-97" style="shape=partialRectangle;html=1;whiteSpace=wrap;connectable=0;strokeColor=inherit;overflow=hidden;fillColor=none;top=0;left=0;bottom=0;right=0;pointerEvents=1;fontSize=16;" vertex="1" parent="Il4vGaOlUkTPHnECqSVA-94">
          <mxGeometry x="120" width="60" height="40" as="geometry">
            <mxRectangle width="60" height="40" as="alternateBounds" />
          </mxGeometry>
        </mxCell>
        <mxCell id="Il4vGaOlUkTPHnECqSVA-99" value="" style="shape=table;startSize=0;container=1;collapsible=0;childLayout=tableLayout;fontSize=23;fillColor=#b1ddf0;strokeColor=#10739e;fontStyle=1" vertex="1" parent="1">
          <mxGeometry x="680" y="630" width="240" height="120" as="geometry" />
        </mxCell>
        <mxCell id="Il4vGaOlUkTPHnECqSVA-100" value="" style="shape=tableRow;horizontal=0;startSize=0;swimlaneHead=0;swimlaneBody=0;strokeColor=inherit;top=0;left=0;bottom=0;right=0;collapsible=0;dropTarget=0;fillColor=none;points=[[0,0.5],[1,0.5]];portConstraint=eastwest;fontSize=23;fontStyle=1" vertex="1" parent="Il4vGaOlUkTPHnECqSVA-99">
          <mxGeometry width="240" height="40" as="geometry" />
        </mxCell>
        <mxCell id="Il4vGaOlUkTPHnECqSVA-101" value="V41" style="shape=partialRectangle;html=1;whiteSpace=wrap;connectable=0;strokeColor=inherit;overflow=hidden;fillColor=none;top=0;left=0;bottom=0;right=0;pointerEvents=1;fontSize=23;fontStyle=1" vertex="1" parent="Il4vGaOlUkTPHnECqSVA-100">
          <mxGeometry width="60" height="40" as="geometry">
            <mxRectangle width="60" height="40" as="alternateBounds" />
          </mxGeometry>
        </mxCell>
        <mxCell id="Il4vGaOlUkTPHnECqSVA-102" value="" style="shape=partialRectangle;html=1;whiteSpace=wrap;connectable=0;strokeColor=inherit;overflow=hidden;fillColor=none;top=0;left=0;bottom=0;right=0;pointerEvents=1;fontSize=23;fontStyle=1" vertex="1" parent="Il4vGaOlUkTPHnECqSVA-100">
          <mxGeometry x="60" width="60" height="40" as="geometry">
            <mxRectangle width="60" height="40" as="alternateBounds" />
          </mxGeometry>
        </mxCell>
        <mxCell id="Il4vGaOlUkTPHnECqSVA-103" value="" style="shape=partialRectangle;html=1;whiteSpace=wrap;connectable=0;strokeColor=inherit;overflow=hidden;fillColor=none;top=0;left=0;bottom=0;right=0;pointerEvents=1;fontSize=23;fontStyle=1" vertex="1" parent="Il4vGaOlUkTPHnECqSVA-100">
          <mxGeometry x="120" width="60" height="40" as="geometry">
            <mxRectangle width="60" height="40" as="alternateBounds" />
          </mxGeometry>
        </mxCell>
        <mxCell id="Il4vGaOlUkTPHnECqSVA-104" style="shape=partialRectangle;html=1;whiteSpace=wrap;connectable=0;strokeColor=inherit;overflow=hidden;fillColor=none;top=0;left=0;bottom=0;right=0;pointerEvents=1;fontSize=23;fontStyle=1" vertex="1" parent="Il4vGaOlUkTPHnECqSVA-100">
          <mxGeometry x="180" width="60" height="40" as="geometry">
            <mxRectangle width="60" height="40" as="alternateBounds" />
          </mxGeometry>
        </mxCell>
        <mxCell id="Il4vGaOlUkTPHnECqSVA-105" value="" style="shape=tableRow;horizontal=0;startSize=0;swimlaneHead=0;swimlaneBody=0;strokeColor=inherit;top=0;left=0;bottom=0;right=0;collapsible=0;dropTarget=0;fillColor=none;points=[[0,0.5],[1,0.5]];portConstraint=eastwest;fontSize=23;fontStyle=1" vertex="1" parent="Il4vGaOlUkTPHnECqSVA-99">
          <mxGeometry y="40" width="240" height="40" as="geometry" />
        </mxCell>
        <mxCell id="Il4vGaOlUkTPHnECqSVA-106" value="V51" style="shape=partialRectangle;html=1;whiteSpace=wrap;connectable=0;strokeColor=inherit;overflow=hidden;fillColor=none;top=0;left=0;bottom=0;right=0;pointerEvents=1;fontSize=23;fontStyle=1" vertex="1" parent="Il4vGaOlUkTPHnECqSVA-105">
          <mxGeometry width="60" height="40" as="geometry">
            <mxRectangle width="60" height="40" as="alternateBounds" />
          </mxGeometry>
        </mxCell>
        <mxCell id="Il4vGaOlUkTPHnECqSVA-107" value="" style="shape=partialRectangle;html=1;whiteSpace=wrap;connectable=0;strokeColor=inherit;overflow=hidden;fillColor=none;top=0;left=0;bottom=0;right=0;pointerEvents=1;fontSize=23;fontStyle=1" vertex="1" parent="Il4vGaOlUkTPHnECqSVA-105">
          <mxGeometry x="60" width="60" height="40" as="geometry">
            <mxRectangle width="60" height="40" as="alternateBounds" />
          </mxGeometry>
        </mxCell>
        <mxCell id="Il4vGaOlUkTPHnECqSVA-108" value="" style="shape=partialRectangle;html=1;whiteSpace=wrap;connectable=0;strokeColor=inherit;overflow=hidden;fillColor=none;top=0;left=0;bottom=0;right=0;pointerEvents=1;fontSize=23;fontStyle=1" vertex="1" parent="Il4vGaOlUkTPHnECqSVA-105">
          <mxGeometry x="120" width="60" height="40" as="geometry">
            <mxRectangle width="60" height="40" as="alternateBounds" />
          </mxGeometry>
        </mxCell>
        <mxCell id="Il4vGaOlUkTPHnECqSVA-109" style="shape=partialRectangle;html=1;whiteSpace=wrap;connectable=0;strokeColor=inherit;overflow=hidden;fillColor=none;top=0;left=0;bottom=0;right=0;pointerEvents=1;fontSize=23;fontStyle=1" vertex="1" parent="Il4vGaOlUkTPHnECqSVA-105">
          <mxGeometry x="180" width="60" height="40" as="geometry">
            <mxRectangle width="60" height="40" as="alternateBounds" />
          </mxGeometry>
        </mxCell>
        <mxCell id="Il4vGaOlUkTPHnECqSVA-110" value="" style="shape=tableRow;horizontal=0;startSize=0;swimlaneHead=0;swimlaneBody=0;strokeColor=inherit;top=0;left=0;bottom=0;right=0;collapsible=0;dropTarget=0;fillColor=none;points=[[0,0.5],[1,0.5]];portConstraint=eastwest;fontSize=23;fontStyle=1" vertex="1" parent="Il4vGaOlUkTPHnECqSVA-99">
          <mxGeometry y="80" width="240" height="40" as="geometry" />
        </mxCell>
        <mxCell id="Il4vGaOlUkTPHnECqSVA-111" value="V61" style="shape=partialRectangle;html=1;whiteSpace=wrap;connectable=0;strokeColor=inherit;overflow=hidden;fillColor=none;top=0;left=0;bottom=0;right=0;pointerEvents=1;fontSize=23;fontStyle=1" vertex="1" parent="Il4vGaOlUkTPHnECqSVA-110">
          <mxGeometry width="60" height="40" as="geometry">
            <mxRectangle width="60" height="40" as="alternateBounds" />
          </mxGeometry>
        </mxCell>
        <mxCell id="Il4vGaOlUkTPHnECqSVA-112" value="" style="shape=partialRectangle;html=1;whiteSpace=wrap;connectable=0;strokeColor=inherit;overflow=hidden;fillColor=none;top=0;left=0;bottom=0;right=0;pointerEvents=1;fontSize=23;fontStyle=1" vertex="1" parent="Il4vGaOlUkTPHnECqSVA-110">
          <mxGeometry x="60" width="60" height="40" as="geometry">
            <mxRectangle width="60" height="40" as="alternateBounds" />
          </mxGeometry>
        </mxCell>
        <mxCell id="Il4vGaOlUkTPHnECqSVA-113" value="" style="shape=partialRectangle;html=1;whiteSpace=wrap;connectable=0;strokeColor=inherit;overflow=hidden;fillColor=none;top=0;left=0;bottom=0;right=0;pointerEvents=1;fontSize=23;fontStyle=1" vertex="1" parent="Il4vGaOlUkTPHnECqSVA-110">
          <mxGeometry x="120" width="60" height="40" as="geometry">
            <mxRectangle width="60" height="40" as="alternateBounds" />
          </mxGeometry>
        </mxCell>
        <mxCell id="Il4vGaOlUkTPHnECqSVA-114" style="shape=partialRectangle;html=1;whiteSpace=wrap;connectable=0;strokeColor=inherit;overflow=hidden;fillColor=none;top=0;left=0;bottom=0;right=0;pointerEvents=1;fontSize=23;fontStyle=1" vertex="1" parent="Il4vGaOlUkTPHnECqSVA-110">
          <mxGeometry x="180" width="60" height="40" as="geometry">
            <mxRectangle width="60" height="40" as="alternateBounds" />
          </mxGeometry>
        </mxCell>
        <mxCell id="Il4vGaOlUkTPHnECqSVA-115" style="edgeStyle=orthogonalEdgeStyle;rounded=0;orthogonalLoop=1;jettySize=auto;html=1;entryX=0.549;entryY=0.003;entryDx=0;entryDy=0;entryPerimeter=0;strokeWidth=4;" edge="1" parent="1" source="Il4vGaOlUkTPHnECqSVA-4" target="Il4vGaOlUkTPHnECqSVA-47">
          <mxGeometry relative="1" as="geometry" />
        </mxCell>
        <mxCell id="Il4vGaOlUkTPHnECqSVA-116" value="" style="shape=table;startSize=0;container=1;collapsible=0;childLayout=tableLayout;fontSize=22;fillColor=#dae8fc;strokeColor=#6c8ebf;fontStyle=1" vertex="1" parent="1">
          <mxGeometry x="200" y="-480" width="240" height="120" as="geometry" />
        </mxCell>
        <mxCell id="Il4vGaOlUkTPHnECqSVA-117" value="" style="shape=tableRow;horizontal=0;startSize=0;swimlaneHead=0;swimlaneBody=0;strokeColor=inherit;top=0;left=0;bottom=0;right=0;collapsible=0;dropTarget=0;fillColor=none;points=[[0,0.5],[1,0.5]];portConstraint=eastwest;fontSize=22;fontStyle=1" vertex="1" parent="Il4vGaOlUkTPHnECqSVA-116">
          <mxGeometry width="240" height="40" as="geometry" />
        </mxCell>
        <mxCell id="Il4vGaOlUkTPHnECqSVA-118" value="" style="shape=partialRectangle;html=1;whiteSpace=wrap;connectable=0;strokeColor=inherit;overflow=hidden;fillColor=none;top=0;left=0;bottom=0;right=0;pointerEvents=1;fontSize=22;fontStyle=1" vertex="1" parent="Il4vGaOlUkTPHnECqSVA-117">
          <mxGeometry width="60" height="40" as="geometry">
            <mxRectangle width="60" height="40" as="alternateBounds" />
          </mxGeometry>
        </mxCell>
        <mxCell id="Il4vGaOlUkTPHnECqSVA-119" value="" style="shape=partialRectangle;html=1;whiteSpace=wrap;connectable=0;strokeColor=inherit;overflow=hidden;fillColor=none;top=0;left=0;bottom=0;right=0;pointerEvents=1;fontSize=22;fontStyle=1" vertex="1" parent="Il4vGaOlUkTPHnECqSVA-117">
          <mxGeometry x="60" width="60" height="40" as="geometry">
            <mxRectangle width="60" height="40" as="alternateBounds" />
          </mxGeometry>
        </mxCell>
        <mxCell id="Il4vGaOlUkTPHnECqSVA-120" value="" style="shape=partialRectangle;html=1;whiteSpace=wrap;connectable=0;strokeColor=inherit;overflow=hidden;fillColor=none;top=0;left=0;bottom=0;right=0;pointerEvents=1;fontSize=22;fontStyle=1" vertex="1" parent="Il4vGaOlUkTPHnECqSVA-117">
          <mxGeometry x="120" width="60" height="40" as="geometry">
            <mxRectangle width="60" height="40" as="alternateBounds" />
          </mxGeometry>
        </mxCell>
        <mxCell id="Il4vGaOlUkTPHnECqSVA-121" value="" style="shape=partialRectangle;html=1;whiteSpace=wrap;connectable=0;strokeColor=inherit;overflow=hidden;fillColor=none;top=0;left=0;bottom=0;right=0;pointerEvents=1;fontSize=22;fontStyle=1" vertex="1" parent="Il4vGaOlUkTPHnECqSVA-117">
          <mxGeometry x="180" width="60" height="40" as="geometry">
            <mxRectangle width="60" height="40" as="alternateBounds" />
          </mxGeometry>
        </mxCell>
        <mxCell id="Il4vGaOlUkTPHnECqSVA-122" value="" style="shape=tableRow;horizontal=0;startSize=0;swimlaneHead=0;swimlaneBody=0;strokeColor=inherit;top=0;left=0;bottom=0;right=0;collapsible=0;dropTarget=0;fillColor=none;points=[[0,0.5],[1,0.5]];portConstraint=eastwest;fontSize=22;fontStyle=1" vertex="1" parent="Il4vGaOlUkTPHnECqSVA-116">
          <mxGeometry y="40" width="240" height="40" as="geometry" />
        </mxCell>
        <mxCell id="Il4vGaOlUkTPHnECqSVA-123" value="" style="shape=partialRectangle;html=1;whiteSpace=wrap;connectable=0;strokeColor=inherit;overflow=hidden;fillColor=none;top=0;left=0;bottom=0;right=0;pointerEvents=1;fontSize=22;fontStyle=1" vertex="1" parent="Il4vGaOlUkTPHnECqSVA-122">
          <mxGeometry width="60" height="40" as="geometry">
            <mxRectangle width="60" height="40" as="alternateBounds" />
          </mxGeometry>
        </mxCell>
        <mxCell id="Il4vGaOlUkTPHnECqSVA-124" value="" style="shape=partialRectangle;html=1;whiteSpace=wrap;connectable=0;strokeColor=inherit;overflow=hidden;fillColor=none;top=0;left=0;bottom=0;right=0;pointerEvents=1;fontSize=22;fontStyle=1" vertex="1" parent="Il4vGaOlUkTPHnECqSVA-122">
          <mxGeometry x="60" width="60" height="40" as="geometry">
            <mxRectangle width="60" height="40" as="alternateBounds" />
          </mxGeometry>
        </mxCell>
        <mxCell id="Il4vGaOlUkTPHnECqSVA-125" value="" style="shape=partialRectangle;html=1;whiteSpace=wrap;connectable=0;strokeColor=inherit;overflow=hidden;fillColor=none;top=0;left=0;bottom=0;right=0;pointerEvents=1;fontSize=22;fontStyle=1" vertex="1" parent="Il4vGaOlUkTPHnECqSVA-122">
          <mxGeometry x="120" width="60" height="40" as="geometry">
            <mxRectangle width="60" height="40" as="alternateBounds" />
          </mxGeometry>
        </mxCell>
        <mxCell id="Il4vGaOlUkTPHnECqSVA-126" value="" style="shape=partialRectangle;html=1;whiteSpace=wrap;connectable=0;strokeColor=inherit;overflow=hidden;fillColor=none;top=0;left=0;bottom=0;right=0;pointerEvents=1;fontSize=22;fontStyle=1" vertex="1" parent="Il4vGaOlUkTPHnECqSVA-122">
          <mxGeometry x="180" width="60" height="40" as="geometry">
            <mxRectangle width="60" height="40" as="alternateBounds" />
          </mxGeometry>
        </mxCell>
        <mxCell id="Il4vGaOlUkTPHnECqSVA-127" value="" style="shape=tableRow;horizontal=0;startSize=0;swimlaneHead=0;swimlaneBody=0;strokeColor=inherit;top=0;left=0;bottom=0;right=0;collapsible=0;dropTarget=0;fillColor=none;points=[[0,0.5],[1,0.5]];portConstraint=eastwest;fontSize=22;fontStyle=1" vertex="1" parent="Il4vGaOlUkTPHnECqSVA-116">
          <mxGeometry y="80" width="240" height="40" as="geometry" />
        </mxCell>
        <mxCell id="Il4vGaOlUkTPHnECqSVA-128" value="" style="shape=partialRectangle;html=1;whiteSpace=wrap;connectable=0;strokeColor=inherit;overflow=hidden;fillColor=none;top=0;left=0;bottom=0;right=0;pointerEvents=1;fontSize=22;fontStyle=1" vertex="1" parent="Il4vGaOlUkTPHnECqSVA-127">
          <mxGeometry width="60" height="40" as="geometry">
            <mxRectangle width="60" height="40" as="alternateBounds" />
          </mxGeometry>
        </mxCell>
        <mxCell id="Il4vGaOlUkTPHnECqSVA-129" value="" style="shape=partialRectangle;html=1;whiteSpace=wrap;connectable=0;strokeColor=inherit;overflow=hidden;fillColor=none;top=0;left=0;bottom=0;right=0;pointerEvents=1;fontSize=22;fontStyle=1" vertex="1" parent="Il4vGaOlUkTPHnECqSVA-127">
          <mxGeometry x="60" width="60" height="40" as="geometry">
            <mxRectangle width="60" height="40" as="alternateBounds" />
          </mxGeometry>
        </mxCell>
        <mxCell id="Il4vGaOlUkTPHnECqSVA-130" value="" style="shape=partialRectangle;html=1;whiteSpace=wrap;connectable=0;strokeColor=inherit;overflow=hidden;fillColor=none;top=0;left=0;bottom=0;right=0;pointerEvents=1;fontSize=22;fontStyle=1" vertex="1" parent="Il4vGaOlUkTPHnECqSVA-127">
          <mxGeometry x="120" width="60" height="40" as="geometry">
            <mxRectangle width="60" height="40" as="alternateBounds" />
          </mxGeometry>
        </mxCell>
        <mxCell id="Il4vGaOlUkTPHnECqSVA-131" value="" style="shape=partialRectangle;html=1;whiteSpace=wrap;connectable=0;strokeColor=inherit;overflow=hidden;fillColor=none;top=0;left=0;bottom=0;right=0;pointerEvents=1;fontSize=22;fontStyle=1" vertex="1" parent="Il4vGaOlUkTPHnECqSVA-127">
          <mxGeometry x="180" width="60" height="40" as="geometry">
            <mxRectangle width="60" height="40" as="alternateBounds" />
          </mxGeometry>
        </mxCell>
        <mxCell id="Il4vGaOlUkTPHnECqSVA-132" value="&lt;font style=&quot;font-size: 24px;&quot;&gt;&lt;b&gt;Q_1&lt;/b&gt;&lt;/font&gt;" style="text;html=1;whiteSpace=wrap;strokeColor=none;fillColor=none;align=center;verticalAlign=middle;rounded=0;" vertex="1" parent="1">
          <mxGeometry x="280" y="-530" width="60" height="30" as="geometry" />
        </mxCell>
        <mxCell id="Il4vGaOlUkTPHnECqSVA-133" value="" style="shape=cross;whiteSpace=wrap;html=1;rotation=45;strokeColor=#000000;gradientColor=none;fillColor=light-dark(#0a0a0a, #ededed);" vertex="1" parent="1">
          <mxGeometry x="449.9953390593273" y="-435.0046609406727" width="50" height="50" as="geometry" />
        </mxCell>
        <mxCell id="Il4vGaOlUkTPHnECqSVA-134" value="" style="shape=table;startSize=0;container=1;collapsible=0;childLayout=tableLayout;fontSize=22;fillColor=#ffe6cc;strokeColor=#d79b00;fontStyle=1" vertex="1" parent="1">
          <mxGeometry x="520" y="-490" width="180" height="160" as="geometry" />
        </mxCell>
        <mxCell id="Il4vGaOlUkTPHnECqSVA-135" value="" style="shape=tableRow;horizontal=0;startSize=0;swimlaneHead=0;swimlaneBody=0;strokeColor=inherit;top=0;left=0;bottom=0;right=0;collapsible=0;dropTarget=0;fillColor=none;points=[[0,0.5],[1,0.5]];portConstraint=eastwest;fontSize=22;fontStyle=1" vertex="1" parent="Il4vGaOlUkTPHnECqSVA-134">
          <mxGeometry width="180" height="40" as="geometry" />
        </mxCell>
        <mxCell id="Il4vGaOlUkTPHnECqSVA-136" value="" style="shape=partialRectangle;html=1;whiteSpace=wrap;connectable=0;strokeColor=inherit;overflow=hidden;fillColor=none;top=0;left=0;bottom=0;right=0;pointerEvents=1;fontSize=22;fontStyle=1" vertex="1" parent="Il4vGaOlUkTPHnECqSVA-135">
          <mxGeometry width="60" height="40" as="geometry">
            <mxRectangle width="60" height="40" as="alternateBounds" />
          </mxGeometry>
        </mxCell>
        <mxCell id="Il4vGaOlUkTPHnECqSVA-137" value="" style="shape=partialRectangle;html=1;whiteSpace=wrap;connectable=0;strokeColor=inherit;overflow=hidden;fillColor=none;top=0;left=0;bottom=0;right=0;pointerEvents=1;fontSize=22;fontStyle=1" vertex="1" parent="Il4vGaOlUkTPHnECqSVA-135">
          <mxGeometry x="60" width="60" height="40" as="geometry">
            <mxRectangle width="60" height="40" as="alternateBounds" />
          </mxGeometry>
        </mxCell>
        <mxCell id="Il4vGaOlUkTPHnECqSVA-138" value="" style="shape=partialRectangle;html=1;whiteSpace=wrap;connectable=0;strokeColor=inherit;overflow=hidden;fillColor=none;top=0;left=0;bottom=0;right=0;pointerEvents=1;fontSize=22;fontStyle=1" vertex="1" parent="Il4vGaOlUkTPHnECqSVA-135">
          <mxGeometry x="120" width="60" height="40" as="geometry">
            <mxRectangle width="60" height="40" as="alternateBounds" />
          </mxGeometry>
        </mxCell>
        <mxCell id="Il4vGaOlUkTPHnECqSVA-139" value="" style="shape=tableRow;horizontal=0;startSize=0;swimlaneHead=0;swimlaneBody=0;strokeColor=inherit;top=0;left=0;bottom=0;right=0;collapsible=0;dropTarget=0;fillColor=none;points=[[0,0.5],[1,0.5]];portConstraint=eastwest;fontSize=22;fontStyle=1" vertex="1" parent="Il4vGaOlUkTPHnECqSVA-134">
          <mxGeometry y="40" width="180" height="40" as="geometry" />
        </mxCell>
        <mxCell id="Il4vGaOlUkTPHnECqSVA-140" value="" style="shape=partialRectangle;html=1;whiteSpace=wrap;connectable=0;strokeColor=inherit;overflow=hidden;fillColor=none;top=0;left=0;bottom=0;right=0;pointerEvents=1;fontSize=22;fontStyle=1" vertex="1" parent="Il4vGaOlUkTPHnECqSVA-139">
          <mxGeometry width="60" height="40" as="geometry">
            <mxRectangle width="60" height="40" as="alternateBounds" />
          </mxGeometry>
        </mxCell>
        <mxCell id="Il4vGaOlUkTPHnECqSVA-141" value="" style="shape=partialRectangle;html=1;whiteSpace=wrap;connectable=0;strokeColor=inherit;overflow=hidden;fillColor=none;top=0;left=0;bottom=0;right=0;pointerEvents=1;fontSize=22;fontStyle=1" vertex="1" parent="Il4vGaOlUkTPHnECqSVA-139">
          <mxGeometry x="60" width="60" height="40" as="geometry">
            <mxRectangle width="60" height="40" as="alternateBounds" />
          </mxGeometry>
        </mxCell>
        <mxCell id="Il4vGaOlUkTPHnECqSVA-142" value="" style="shape=partialRectangle;html=1;whiteSpace=wrap;connectable=0;strokeColor=inherit;overflow=hidden;fillColor=none;top=0;left=0;bottom=0;right=0;pointerEvents=1;fontSize=22;fontStyle=1" vertex="1" parent="Il4vGaOlUkTPHnECqSVA-139">
          <mxGeometry x="120" width="60" height="40" as="geometry">
            <mxRectangle width="60" height="40" as="alternateBounds" />
          </mxGeometry>
        </mxCell>
        <mxCell id="Il4vGaOlUkTPHnECqSVA-143" value="" style="shape=tableRow;horizontal=0;startSize=0;swimlaneHead=0;swimlaneBody=0;strokeColor=inherit;top=0;left=0;bottom=0;right=0;collapsible=0;dropTarget=0;fillColor=none;points=[[0,0.5],[1,0.5]];portConstraint=eastwest;fontSize=22;fontStyle=1" vertex="1" parent="Il4vGaOlUkTPHnECqSVA-134">
          <mxGeometry y="80" width="180" height="40" as="geometry" />
        </mxCell>
        <mxCell id="Il4vGaOlUkTPHnECqSVA-144" value="" style="shape=partialRectangle;html=1;whiteSpace=wrap;connectable=0;strokeColor=inherit;overflow=hidden;fillColor=none;top=0;left=0;bottom=0;right=0;pointerEvents=1;fontSize=22;fontStyle=1" vertex="1" parent="Il4vGaOlUkTPHnECqSVA-143">
          <mxGeometry width="60" height="40" as="geometry">
            <mxRectangle width="60" height="40" as="alternateBounds" />
          </mxGeometry>
        </mxCell>
        <mxCell id="Il4vGaOlUkTPHnECqSVA-145" value="" style="shape=partialRectangle;html=1;whiteSpace=wrap;connectable=0;strokeColor=inherit;overflow=hidden;fillColor=none;top=0;left=0;bottom=0;right=0;pointerEvents=1;fontSize=22;fontStyle=1" vertex="1" parent="Il4vGaOlUkTPHnECqSVA-143">
          <mxGeometry x="60" width="60" height="40" as="geometry">
            <mxRectangle width="60" height="40" as="alternateBounds" />
          </mxGeometry>
        </mxCell>
        <mxCell id="Il4vGaOlUkTPHnECqSVA-146" value="" style="shape=partialRectangle;html=1;whiteSpace=wrap;connectable=0;strokeColor=inherit;overflow=hidden;fillColor=none;top=0;left=0;bottom=0;right=0;pointerEvents=1;fontSize=22;fontStyle=1" vertex="1" parent="Il4vGaOlUkTPHnECqSVA-143">
          <mxGeometry x="120" width="60" height="40" as="geometry">
            <mxRectangle width="60" height="40" as="alternateBounds" />
          </mxGeometry>
        </mxCell>
        <mxCell id="Il4vGaOlUkTPHnECqSVA-147" style="shape=tableRow;horizontal=0;startSize=0;swimlaneHead=0;swimlaneBody=0;strokeColor=inherit;top=0;left=0;bottom=0;right=0;collapsible=0;dropTarget=0;fillColor=none;points=[[0,0.5],[1,0.5]];portConstraint=eastwest;fontSize=22;fontStyle=1" vertex="1" parent="Il4vGaOlUkTPHnECqSVA-134">
          <mxGeometry y="120" width="180" height="40" as="geometry" />
        </mxCell>
        <mxCell id="Il4vGaOlUkTPHnECqSVA-148" value="" style="shape=partialRectangle;html=1;whiteSpace=wrap;connectable=0;strokeColor=inherit;overflow=hidden;fillColor=none;top=0;left=0;bottom=0;right=0;pointerEvents=1;fontSize=22;fontStyle=1" vertex="1" parent="Il4vGaOlUkTPHnECqSVA-147">
          <mxGeometry width="60" height="40" as="geometry">
            <mxRectangle width="60" height="40" as="alternateBounds" />
          </mxGeometry>
        </mxCell>
        <mxCell id="Il4vGaOlUkTPHnECqSVA-149" value="" style="shape=partialRectangle;html=1;whiteSpace=wrap;connectable=0;strokeColor=inherit;overflow=hidden;fillColor=none;top=0;left=0;bottom=0;right=0;pointerEvents=1;fontSize=22;fontStyle=1" vertex="1" parent="Il4vGaOlUkTPHnECqSVA-147">
          <mxGeometry x="60" width="60" height="40" as="geometry">
            <mxRectangle width="60" height="40" as="alternateBounds" />
          </mxGeometry>
        </mxCell>
        <mxCell id="Il4vGaOlUkTPHnECqSVA-150" value="" style="shape=partialRectangle;html=1;whiteSpace=wrap;connectable=0;strokeColor=inherit;overflow=hidden;fillColor=none;top=0;left=0;bottom=0;right=0;pointerEvents=1;fontSize=22;fontStyle=1" vertex="1" parent="Il4vGaOlUkTPHnECqSVA-147">
          <mxGeometry x="120" width="60" height="40" as="geometry">
            <mxRectangle width="60" height="40" as="alternateBounds" />
          </mxGeometry>
        </mxCell>
        <mxCell id="Il4vGaOlUkTPHnECqSVA-151" value="&lt;span style=&quot;font-size: 24px;&quot;&gt;&lt;b&gt;K^T_1&lt;/b&gt;&lt;/span&gt;" style="text;html=1;whiteSpace=wrap;strokeColor=none;fillColor=none;align=center;verticalAlign=middle;rounded=0;" vertex="1" parent="1">
          <mxGeometry x="580" y="-530" width="60" height="30" as="geometry" />
        </mxCell>
        <mxCell id="Il4vGaOlUkTPHnECqSVA-152" value="" style="shape=table;startSize=0;container=1;collapsible=0;childLayout=tableLayout;fontSize=16;fillColor=#bac8d3;strokeColor=#23445d;" vertex="1" parent="1">
          <mxGeometry x="760" y="-475" width="180" height="120" as="geometry" />
        </mxCell>
        <mxCell id="Il4vGaOlUkTPHnECqSVA-153" value="" style="shape=tableRow;horizontal=0;startSize=0;swimlaneHead=0;swimlaneBody=0;strokeColor=inherit;top=0;left=0;bottom=0;right=0;collapsible=0;dropTarget=0;fillColor=none;points=[[0,0.5],[1,0.5]];portConstraint=eastwest;fontSize=24;fontStyle=1" vertex="1" parent="Il4vGaOlUkTPHnECqSVA-152">
          <mxGeometry width="180" height="40" as="geometry" />
        </mxCell>
        <mxCell id="Il4vGaOlUkTPHnECqSVA-154" value="s11" style="shape=partialRectangle;html=1;whiteSpace=wrap;connectable=0;strokeColor=inherit;overflow=hidden;fillColor=none;top=0;left=0;bottom=0;right=0;pointerEvents=1;fontSize=24;fontStyle=1" vertex="1" parent="Il4vGaOlUkTPHnECqSVA-153">
          <mxGeometry width="60" height="40" as="geometry">
            <mxRectangle width="60" height="40" as="alternateBounds" />
          </mxGeometry>
        </mxCell>
        <mxCell id="Il4vGaOlUkTPHnECqSVA-155" value="s12" style="shape=partialRectangle;html=1;whiteSpace=wrap;connectable=0;strokeColor=inherit;overflow=hidden;fillColor=none;top=0;left=0;bottom=0;right=0;pointerEvents=1;fontSize=24;fontStyle=1" vertex="1" parent="Il4vGaOlUkTPHnECqSVA-153">
          <mxGeometry x="60" width="60" height="40" as="geometry">
            <mxRectangle width="60" height="40" as="alternateBounds" />
          </mxGeometry>
        </mxCell>
        <mxCell id="Il4vGaOlUkTPHnECqSVA-156" value="s13" style="shape=partialRectangle;html=1;whiteSpace=wrap;connectable=0;strokeColor=inherit;overflow=hidden;fillColor=none;top=0;left=0;bottom=0;right=0;pointerEvents=1;fontSize=24;fontStyle=1" vertex="1" parent="Il4vGaOlUkTPHnECqSVA-153">
          <mxGeometry x="120" width="60" height="40" as="geometry">
            <mxRectangle width="60" height="40" as="alternateBounds" />
          </mxGeometry>
        </mxCell>
        <mxCell id="Il4vGaOlUkTPHnECqSVA-157" value="" style="shape=tableRow;horizontal=0;startSize=0;swimlaneHead=0;swimlaneBody=0;strokeColor=inherit;top=0;left=0;bottom=0;right=0;collapsible=0;dropTarget=0;fillColor=none;points=[[0,0.5],[1,0.5]];portConstraint=eastwest;fontSize=16;" vertex="1" parent="Il4vGaOlUkTPHnECqSVA-152">
          <mxGeometry y="40" width="180" height="40" as="geometry" />
        </mxCell>
        <mxCell id="Il4vGaOlUkTPHnECqSVA-158" value="" style="shape=partialRectangle;html=1;whiteSpace=wrap;connectable=0;strokeColor=inherit;overflow=hidden;fillColor=none;top=0;left=0;bottom=0;right=0;pointerEvents=1;fontSize=16;" vertex="1" parent="Il4vGaOlUkTPHnECqSVA-157">
          <mxGeometry width="60" height="40" as="geometry">
            <mxRectangle width="60" height="40" as="alternateBounds" />
          </mxGeometry>
        </mxCell>
        <mxCell id="Il4vGaOlUkTPHnECqSVA-159" value="" style="shape=partialRectangle;html=1;whiteSpace=wrap;connectable=0;strokeColor=inherit;overflow=hidden;fillColor=none;top=0;left=0;bottom=0;right=0;pointerEvents=1;fontSize=16;" vertex="1" parent="Il4vGaOlUkTPHnECqSVA-157">
          <mxGeometry x="60" width="60" height="40" as="geometry">
            <mxRectangle width="60" height="40" as="alternateBounds" />
          </mxGeometry>
        </mxCell>
        <mxCell id="Il4vGaOlUkTPHnECqSVA-160" value="" style="shape=partialRectangle;html=1;whiteSpace=wrap;connectable=0;strokeColor=inherit;overflow=hidden;fillColor=none;top=0;left=0;bottom=0;right=0;pointerEvents=1;fontSize=16;" vertex="1" parent="Il4vGaOlUkTPHnECqSVA-157">
          <mxGeometry x="120" width="60" height="40" as="geometry">
            <mxRectangle width="60" height="40" as="alternateBounds" />
          </mxGeometry>
        </mxCell>
        <mxCell id="Il4vGaOlUkTPHnECqSVA-161" value="" style="shape=tableRow;horizontal=0;startSize=0;swimlaneHead=0;swimlaneBody=0;strokeColor=inherit;top=0;left=0;bottom=0;right=0;collapsible=0;dropTarget=0;fillColor=none;points=[[0,0.5],[1,0.5]];portConstraint=eastwest;fontSize=16;" vertex="1" parent="Il4vGaOlUkTPHnECqSVA-152">
          <mxGeometry y="80" width="180" height="40" as="geometry" />
        </mxCell>
        <mxCell id="Il4vGaOlUkTPHnECqSVA-162" value="" style="shape=partialRectangle;html=1;whiteSpace=wrap;connectable=0;strokeColor=inherit;overflow=hidden;fillColor=none;top=0;left=0;bottom=0;right=0;pointerEvents=1;fontSize=16;" vertex="1" parent="Il4vGaOlUkTPHnECqSVA-161">
          <mxGeometry width="60" height="40" as="geometry">
            <mxRectangle width="60" height="40" as="alternateBounds" />
          </mxGeometry>
        </mxCell>
        <mxCell id="Il4vGaOlUkTPHnECqSVA-163" value="" style="shape=partialRectangle;html=1;whiteSpace=wrap;connectable=0;strokeColor=inherit;overflow=hidden;fillColor=none;top=0;left=0;bottom=0;right=0;pointerEvents=1;fontSize=16;" vertex="1" parent="Il4vGaOlUkTPHnECqSVA-161">
          <mxGeometry x="60" width="60" height="40" as="geometry">
            <mxRectangle width="60" height="40" as="alternateBounds" />
          </mxGeometry>
        </mxCell>
        <mxCell id="Il4vGaOlUkTPHnECqSVA-164" value="" style="shape=partialRectangle;html=1;whiteSpace=wrap;connectable=0;strokeColor=inherit;overflow=hidden;fillColor=none;top=0;left=0;bottom=0;right=0;pointerEvents=1;fontSize=16;" vertex="1" parent="Il4vGaOlUkTPHnECqSVA-161">
          <mxGeometry x="120" width="60" height="40" as="geometry">
            <mxRectangle width="60" height="40" as="alternateBounds" />
          </mxGeometry>
        </mxCell>
        <mxCell id="Il4vGaOlUkTPHnECqSVA-165" value="&lt;font style=&quot;font-size: 24px;&quot;&gt;&lt;b&gt;S_1_1&lt;/b&gt;&lt;/font&gt;" style="text;html=1;whiteSpace=wrap;strokeColor=none;fillColor=none;align=center;verticalAlign=middle;rounded=0;" vertex="1" parent="1">
          <mxGeometry x="820" y="-515" width="60" height="30" as="geometry" />
        </mxCell>
        <mxCell id="Il4vGaOlUkTPHnECqSVA-166" value="" style="group" vertex="1" connectable="0" parent="1">
          <mxGeometry x="710" y="-430" width="40" height="30" as="geometry" />
        </mxCell>
        <mxCell id="Il4vGaOlUkTPHnECqSVA-167" value="" style="rounded=0;whiteSpace=wrap;html=1;fillColor=#000000;" vertex="1" parent="Il4vGaOlUkTPHnECqSVA-166">
          <mxGeometry width="40" height="10" as="geometry" />
        </mxCell>
        <mxCell id="Il4vGaOlUkTPHnECqSVA-168" value="" style="rounded=0;whiteSpace=wrap;html=1;fillColor=#000000;" vertex="1" parent="Il4vGaOlUkTPHnECqSVA-166">
          <mxGeometry y="20" width="40" height="10" as="geometry" />
        </mxCell>
        <mxCell id="Il4vGaOlUkTPHnECqSVA-169" value="" style="shape=cross;whiteSpace=wrap;html=1;rotation=45;strokeColor=#000000;gradientColor=none;fillColor=light-dark(#0a0a0a, #ededed);" vertex="1" parent="1">
          <mxGeometry x="549.9953390593273" y="-105.0046609406727" width="50" height="50" as="geometry" />
        </mxCell>
        <mxCell id="Il4vGaOlUkTPHnECqSVA-170" value="" style="shape=table;startSize=0;container=1;collapsible=0;childLayout=tableLayout;fontSize=23;fillColor=#b0e3e6;strokeColor=#0e8088;fontStyle=1" vertex="1" parent="1">
          <mxGeometry x="640" y="-130" width="240" height="120" as="geometry" />
        </mxCell>
        <mxCell id="Il4vGaOlUkTPHnECqSVA-171" value="" style="shape=tableRow;horizontal=0;startSize=0;swimlaneHead=0;swimlaneBody=0;strokeColor=inherit;top=0;left=0;bottom=0;right=0;collapsible=0;dropTarget=0;fillColor=none;points=[[0,0.5],[1,0.5]];portConstraint=eastwest;fontSize=23;fontStyle=1" vertex="1" parent="Il4vGaOlUkTPHnECqSVA-170">
          <mxGeometry width="240" height="40" as="geometry" />
        </mxCell>
        <mxCell id="Il4vGaOlUkTPHnECqSVA-172" value="V11" style="shape=partialRectangle;html=1;whiteSpace=wrap;connectable=0;strokeColor=inherit;overflow=hidden;fillColor=none;top=0;left=0;bottom=0;right=0;pointerEvents=1;fontSize=23;fontStyle=1" vertex="1" parent="Il4vGaOlUkTPHnECqSVA-171">
          <mxGeometry width="60" height="40" as="geometry">
            <mxRectangle width="60" height="40" as="alternateBounds" />
          </mxGeometry>
        </mxCell>
        <mxCell id="Il4vGaOlUkTPHnECqSVA-173" value="" style="shape=partialRectangle;html=1;whiteSpace=wrap;connectable=0;strokeColor=inherit;overflow=hidden;fillColor=none;top=0;left=0;bottom=0;right=0;pointerEvents=1;fontSize=23;fontStyle=1" vertex="1" parent="Il4vGaOlUkTPHnECqSVA-171">
          <mxGeometry x="60" width="60" height="40" as="geometry">
            <mxRectangle width="60" height="40" as="alternateBounds" />
          </mxGeometry>
        </mxCell>
        <mxCell id="Il4vGaOlUkTPHnECqSVA-174" value="" style="shape=partialRectangle;html=1;whiteSpace=wrap;connectable=0;strokeColor=inherit;overflow=hidden;fillColor=none;top=0;left=0;bottom=0;right=0;pointerEvents=1;fontSize=23;fontStyle=1" vertex="1" parent="Il4vGaOlUkTPHnECqSVA-171">
          <mxGeometry x="120" width="60" height="40" as="geometry">
            <mxRectangle width="60" height="40" as="alternateBounds" />
          </mxGeometry>
        </mxCell>
        <mxCell id="Il4vGaOlUkTPHnECqSVA-175" style="shape=partialRectangle;html=1;whiteSpace=wrap;connectable=0;strokeColor=inherit;overflow=hidden;fillColor=none;top=0;left=0;bottom=0;right=0;pointerEvents=1;fontSize=23;fontStyle=1" vertex="1" parent="Il4vGaOlUkTPHnECqSVA-171">
          <mxGeometry x="180" width="60" height="40" as="geometry">
            <mxRectangle width="60" height="40" as="alternateBounds" />
          </mxGeometry>
        </mxCell>
        <mxCell id="Il4vGaOlUkTPHnECqSVA-176" value="" style="shape=tableRow;horizontal=0;startSize=0;swimlaneHead=0;swimlaneBody=0;strokeColor=inherit;top=0;left=0;bottom=0;right=0;collapsible=0;dropTarget=0;fillColor=none;points=[[0,0.5],[1,0.5]];portConstraint=eastwest;fontSize=23;fontStyle=1" vertex="1" parent="Il4vGaOlUkTPHnECqSVA-170">
          <mxGeometry y="40" width="240" height="40" as="geometry" />
        </mxCell>
        <mxCell id="Il4vGaOlUkTPHnECqSVA-177" value="V21" style="shape=partialRectangle;html=1;whiteSpace=wrap;connectable=0;strokeColor=inherit;overflow=hidden;fillColor=none;top=0;left=0;bottom=0;right=0;pointerEvents=1;fontSize=23;fontStyle=1" vertex="1" parent="Il4vGaOlUkTPHnECqSVA-176">
          <mxGeometry width="60" height="40" as="geometry">
            <mxRectangle width="60" height="40" as="alternateBounds" />
          </mxGeometry>
        </mxCell>
        <mxCell id="Il4vGaOlUkTPHnECqSVA-178" value="" style="shape=partialRectangle;html=1;whiteSpace=wrap;connectable=0;strokeColor=inherit;overflow=hidden;fillColor=none;top=0;left=0;bottom=0;right=0;pointerEvents=1;fontSize=23;fontStyle=1" vertex="1" parent="Il4vGaOlUkTPHnECqSVA-176">
          <mxGeometry x="60" width="60" height="40" as="geometry">
            <mxRectangle width="60" height="40" as="alternateBounds" />
          </mxGeometry>
        </mxCell>
        <mxCell id="Il4vGaOlUkTPHnECqSVA-179" value="" style="shape=partialRectangle;html=1;whiteSpace=wrap;connectable=0;strokeColor=inherit;overflow=hidden;fillColor=none;top=0;left=0;bottom=0;right=0;pointerEvents=1;fontSize=23;fontStyle=1" vertex="1" parent="Il4vGaOlUkTPHnECqSVA-176">
          <mxGeometry x="120" width="60" height="40" as="geometry">
            <mxRectangle width="60" height="40" as="alternateBounds" />
          </mxGeometry>
        </mxCell>
        <mxCell id="Il4vGaOlUkTPHnECqSVA-180" style="shape=partialRectangle;html=1;whiteSpace=wrap;connectable=0;strokeColor=inherit;overflow=hidden;fillColor=none;top=0;left=0;bottom=0;right=0;pointerEvents=1;fontSize=23;fontStyle=1" vertex="1" parent="Il4vGaOlUkTPHnECqSVA-176">
          <mxGeometry x="180" width="60" height="40" as="geometry">
            <mxRectangle width="60" height="40" as="alternateBounds" />
          </mxGeometry>
        </mxCell>
        <mxCell id="Il4vGaOlUkTPHnECqSVA-181" value="" style="shape=tableRow;horizontal=0;startSize=0;swimlaneHead=0;swimlaneBody=0;strokeColor=inherit;top=0;left=0;bottom=0;right=0;collapsible=0;dropTarget=0;fillColor=none;points=[[0,0.5],[1,0.5]];portConstraint=eastwest;fontSize=23;fontStyle=1" vertex="1" parent="Il4vGaOlUkTPHnECqSVA-170">
          <mxGeometry y="80" width="240" height="40" as="geometry" />
        </mxCell>
        <mxCell id="Il4vGaOlUkTPHnECqSVA-182" value="V31" style="shape=partialRectangle;html=1;whiteSpace=wrap;connectable=0;strokeColor=inherit;overflow=hidden;fillColor=none;top=0;left=0;bottom=0;right=0;pointerEvents=1;fontSize=23;fontStyle=1" vertex="1" parent="Il4vGaOlUkTPHnECqSVA-181">
          <mxGeometry width="60" height="40" as="geometry">
            <mxRectangle width="60" height="40" as="alternateBounds" />
          </mxGeometry>
        </mxCell>
        <mxCell id="Il4vGaOlUkTPHnECqSVA-183" value="" style="shape=partialRectangle;html=1;whiteSpace=wrap;connectable=0;strokeColor=inherit;overflow=hidden;fillColor=none;top=0;left=0;bottom=0;right=0;pointerEvents=1;fontSize=23;fontStyle=1" vertex="1" parent="Il4vGaOlUkTPHnECqSVA-181">
          <mxGeometry x="60" width="60" height="40" as="geometry">
            <mxRectangle width="60" height="40" as="alternateBounds" />
          </mxGeometry>
        </mxCell>
        <mxCell id="Il4vGaOlUkTPHnECqSVA-184" value="" style="shape=partialRectangle;html=1;whiteSpace=wrap;connectable=0;strokeColor=inherit;overflow=hidden;fillColor=none;top=0;left=0;bottom=0;right=0;pointerEvents=1;fontSize=23;fontStyle=1" vertex="1" parent="Il4vGaOlUkTPHnECqSVA-181">
          <mxGeometry x="120" width="60" height="40" as="geometry">
            <mxRectangle width="60" height="40" as="alternateBounds" />
          </mxGeometry>
        </mxCell>
        <mxCell id="Il4vGaOlUkTPHnECqSVA-185" style="shape=partialRectangle;html=1;whiteSpace=wrap;connectable=0;strokeColor=inherit;overflow=hidden;fillColor=none;top=0;left=0;bottom=0;right=0;pointerEvents=1;fontSize=23;fontStyle=1" vertex="1" parent="Il4vGaOlUkTPHnECqSVA-181">
          <mxGeometry x="180" width="60" height="40" as="geometry">
            <mxRectangle width="60" height="40" as="alternateBounds" />
          </mxGeometry>
        </mxCell>
        <mxCell id="Il4vGaOlUkTPHnECqSVA-186" value="&lt;font style=&quot;font-size: 24px;&quot;&gt;&lt;b&gt;V_1&lt;/b&gt;&lt;/font&gt;" style="text;html=1;whiteSpace=wrap;strokeColor=none;fillColor=none;align=center;verticalAlign=middle;rounded=0;" vertex="1" parent="1">
          <mxGeometry x="720" y="-170" width="60" height="30" as="geometry" />
        </mxCell>
        <mxCell id="Il4vGaOlUkTPHnECqSVA-187" value="" style="group" vertex="1" connectable="0" parent="1">
          <mxGeometry x="920" y="-95" width="60" height="30" as="geometry" />
        </mxCell>
        <mxCell id="Il4vGaOlUkTPHnECqSVA-188" value="" style="rounded=0;whiteSpace=wrap;html=1;fillColor=#000000;" vertex="1" parent="Il4vGaOlUkTPHnECqSVA-187">
          <mxGeometry width="60" height="10" as="geometry" />
        </mxCell>
        <mxCell id="Il4vGaOlUkTPHnECqSVA-189" value="" style="rounded=0;whiteSpace=wrap;html=1;fillColor=#000000;" vertex="1" parent="Il4vGaOlUkTPHnECqSVA-187">
          <mxGeometry y="20" width="60" height="10" as="geometry" />
        </mxCell>
        <mxCell id="Il4vGaOlUkTPHnECqSVA-190" value="" style="shape=table;startSize=0;container=1;collapsible=0;childLayout=tableLayout;fontSize=16;fillColor=#ffcccc;strokeColor=#36393d;" vertex="1" parent="1">
          <mxGeometry x="990" y="-200" width="560" height="290" as="geometry" />
        </mxCell>
        <mxCell id="Il4vGaOlUkTPHnECqSVA-191" value="" style="shape=tableRow;horizontal=0;startSize=0;swimlaneHead=0;swimlaneBody=0;strokeColor=inherit;top=0;left=0;bottom=0;right=0;collapsible=0;dropTarget=0;fillColor=none;points=[[0,0.5],[1,0.5]];portConstraint=eastwest;fontSize=16;" vertex="1" parent="Il4vGaOlUkTPHnECqSVA-190">
          <mxGeometry width="560" height="189" as="geometry" />
        </mxCell>
        <mxCell id="Il4vGaOlUkTPHnECqSVA-192" value="" style="shape=partialRectangle;html=1;whiteSpace=wrap;connectable=0;strokeColor=inherit;overflow=hidden;fillColor=none;top=0;left=0;bottom=0;right=0;pointerEvents=1;fontSize=16;" vertex="1" parent="Il4vGaOlUkTPHnECqSVA-191">
          <mxGeometry width="317" height="189" as="geometry">
            <mxRectangle width="317" height="189" as="alternateBounds" />
          </mxGeometry>
        </mxCell>
        <mxCell id="Il4vGaOlUkTPHnECqSVA-193" value="" style="shape=partialRectangle;html=1;whiteSpace=wrap;connectable=0;strokeColor=inherit;overflow=hidden;fillColor=none;top=0;left=0;bottom=0;right=0;pointerEvents=1;fontSize=16;" vertex="1" parent="Il4vGaOlUkTPHnECqSVA-191">
          <mxGeometry x="317" width="81" height="189" as="geometry">
            <mxRectangle width="81" height="189" as="alternateBounds" />
          </mxGeometry>
        </mxCell>
        <mxCell id="Il4vGaOlUkTPHnECqSVA-194" value="" style="shape=partialRectangle;html=1;whiteSpace=wrap;connectable=0;strokeColor=inherit;overflow=hidden;fillColor=none;top=0;left=0;bottom=0;right=0;pointerEvents=1;fontSize=16;" vertex="1" parent="Il4vGaOlUkTPHnECqSVA-191">
          <mxGeometry x="398" width="81" height="189" as="geometry">
            <mxRectangle width="81" height="189" as="alternateBounds" />
          </mxGeometry>
        </mxCell>
        <mxCell id="Il4vGaOlUkTPHnECqSVA-195" style="shape=partialRectangle;html=1;whiteSpace=wrap;connectable=0;strokeColor=inherit;overflow=hidden;fillColor=none;top=0;left=0;bottom=0;right=0;pointerEvents=1;fontSize=16;" vertex="1" parent="Il4vGaOlUkTPHnECqSVA-191">
          <mxGeometry x="479" width="81" height="189" as="geometry">
            <mxRectangle width="81" height="189" as="alternateBounds" />
          </mxGeometry>
        </mxCell>
        <mxCell id="Il4vGaOlUkTPHnECqSVA-196" value="" style="shape=tableRow;horizontal=0;startSize=0;swimlaneHead=0;swimlaneBody=0;strokeColor=inherit;top=0;left=0;bottom=0;right=0;collapsible=0;dropTarget=0;fillColor=none;points=[[0,0.5],[1,0.5]];portConstraint=eastwest;fontSize=16;" vertex="1" parent="Il4vGaOlUkTPHnECqSVA-190">
          <mxGeometry y="189" width="560" height="51" as="geometry" />
        </mxCell>
        <mxCell id="Il4vGaOlUkTPHnECqSVA-197" value="" style="shape=partialRectangle;html=1;whiteSpace=wrap;connectable=0;strokeColor=inherit;overflow=hidden;fillColor=none;top=0;left=0;bottom=0;right=0;pointerEvents=1;fontSize=16;" vertex="1" parent="Il4vGaOlUkTPHnECqSVA-196">
          <mxGeometry width="317" height="51" as="geometry">
            <mxRectangle width="317" height="51" as="alternateBounds" />
          </mxGeometry>
        </mxCell>
        <mxCell id="Il4vGaOlUkTPHnECqSVA-198" value="" style="shape=partialRectangle;html=1;whiteSpace=wrap;connectable=0;strokeColor=inherit;overflow=hidden;fillColor=none;top=0;left=0;bottom=0;right=0;pointerEvents=1;fontSize=16;" vertex="1" parent="Il4vGaOlUkTPHnECqSVA-196">
          <mxGeometry x="317" width="81" height="51" as="geometry">
            <mxRectangle width="81" height="51" as="alternateBounds" />
          </mxGeometry>
        </mxCell>
        <mxCell id="Il4vGaOlUkTPHnECqSVA-199" value="" style="shape=partialRectangle;html=1;whiteSpace=wrap;connectable=0;strokeColor=inherit;overflow=hidden;fillColor=none;top=0;left=0;bottom=0;right=0;pointerEvents=1;fontSize=16;" vertex="1" parent="Il4vGaOlUkTPHnECqSVA-196">
          <mxGeometry x="398" width="81" height="51" as="geometry">
            <mxRectangle width="81" height="51" as="alternateBounds" />
          </mxGeometry>
        </mxCell>
        <mxCell id="Il4vGaOlUkTPHnECqSVA-200" style="shape=partialRectangle;html=1;whiteSpace=wrap;connectable=0;strokeColor=inherit;overflow=hidden;fillColor=none;top=0;left=0;bottom=0;right=0;pointerEvents=1;fontSize=16;" vertex="1" parent="Il4vGaOlUkTPHnECqSVA-196">
          <mxGeometry x="479" width="81" height="51" as="geometry">
            <mxRectangle width="81" height="51" as="alternateBounds" />
          </mxGeometry>
        </mxCell>
        <mxCell id="Il4vGaOlUkTPHnECqSVA-201" value="" style="shape=tableRow;horizontal=0;startSize=0;swimlaneHead=0;swimlaneBody=0;strokeColor=inherit;top=0;left=0;bottom=0;right=0;collapsible=0;dropTarget=0;fillColor=none;points=[[0,0.5],[1,0.5]];portConstraint=eastwest;fontSize=16;" vertex="1" parent="Il4vGaOlUkTPHnECqSVA-190">
          <mxGeometry y="240" width="560" height="50" as="geometry" />
        </mxCell>
        <mxCell id="Il4vGaOlUkTPHnECqSVA-202" value="" style="shape=partialRectangle;html=1;whiteSpace=wrap;connectable=0;strokeColor=inherit;overflow=hidden;fillColor=none;top=0;left=0;bottom=0;right=0;pointerEvents=1;fontSize=16;" vertex="1" parent="Il4vGaOlUkTPHnECqSVA-201">
          <mxGeometry width="317" height="50" as="geometry">
            <mxRectangle width="317" height="50" as="alternateBounds" />
          </mxGeometry>
        </mxCell>
        <mxCell id="Il4vGaOlUkTPHnECqSVA-203" value="" style="shape=partialRectangle;html=1;whiteSpace=wrap;connectable=0;strokeColor=inherit;overflow=hidden;fillColor=none;top=0;left=0;bottom=0;right=0;pointerEvents=1;fontSize=16;" vertex="1" parent="Il4vGaOlUkTPHnECqSVA-201">
          <mxGeometry x="317" width="81" height="50" as="geometry">
            <mxRectangle width="81" height="50" as="alternateBounds" />
          </mxGeometry>
        </mxCell>
        <mxCell id="Il4vGaOlUkTPHnECqSVA-204" value="" style="shape=partialRectangle;html=1;whiteSpace=wrap;connectable=0;strokeColor=inherit;overflow=hidden;fillColor=none;top=0;left=0;bottom=0;right=0;pointerEvents=1;fontSize=16;" vertex="1" parent="Il4vGaOlUkTPHnECqSVA-201">
          <mxGeometry x="398" width="81" height="50" as="geometry">
            <mxRectangle width="81" height="50" as="alternateBounds" />
          </mxGeometry>
        </mxCell>
        <mxCell id="Il4vGaOlUkTPHnECqSVA-205" style="shape=partialRectangle;html=1;whiteSpace=wrap;connectable=0;strokeColor=inherit;overflow=hidden;fillColor=none;top=0;left=0;bottom=0;right=0;pointerEvents=1;fontSize=16;" vertex="1" parent="Il4vGaOlUkTPHnECqSVA-201">
          <mxGeometry x="479" width="81" height="50" as="geometry">
            <mxRectangle width="81" height="50" as="alternateBounds" />
          </mxGeometry>
        </mxCell>
        <mxCell id="Il4vGaOlUkTPHnECqSVA-206" value="&lt;font style=&quot;font-size: 24px;&quot;&gt;&lt;b&gt;O_1_shard_1&lt;/b&gt;&lt;/font&gt;" style="text;html=1;whiteSpace=wrap;strokeColor=none;fillColor=none;align=center;verticalAlign=middle;rounded=0;" vertex="1" parent="1">
          <mxGeometry x="1095" y="-240" width="60" height="30" as="geometry" />
        </mxCell>
        <mxCell id="Il4vGaOlUkTPHnECqSVA-207" value="&lt;font&gt;&lt;span&gt;m_1=s11&lt;/span&gt;&lt;/font&gt;" style="text;html=1;whiteSpace=wrap;strokeColor=none;fillColor=none;align=center;verticalAlign=middle;rounded=0;fontSize=30;fontStyle=1" vertex="1" parent="1">
          <mxGeometry x="1270" y="-500" width="90" height="40" as="geometry" />
        </mxCell>
        <mxCell id="Il4vGaOlUkTPHnECqSVA-208" value="&lt;font&gt;&lt;span&gt;l_1=&lt;/span&gt;&lt;/font&gt;&lt;div&gt;&lt;font&gt;&lt;span&gt;e^(s11-m_1)+&lt;/span&gt;&lt;/font&gt;&lt;span&gt;e^(s12-m_1)+&lt;/span&gt;&lt;span&gt;e^(s13-m_1)&lt;/span&gt;&lt;/div&gt;" style="text;html=1;whiteSpace=wrap;strokeColor=none;fillColor=none;align=center;verticalAlign=middle;rounded=0;fontSize=30;fontStyle=1" vertex="1" parent="1">
          <mxGeometry x="1000" y="-435" width="630" height="40" as="geometry" />
        </mxCell>
        <mxCell id="Il4vGaOlUkTPHnECqSVA-209" value="" style="shape=flexArrow;endArrow=classic;html=1;rounded=0;fontStyle=0;labelBackgroundColor=#000000;fontColor=none;noLabel=1;fillColor=light-dark(#0a0a0a, #ededed);" edge="1" parent="1">
          <mxGeometry width="50" height="50" relative="1" as="geometry">
            <mxPoint x="960" y="-415.77" as="sourcePoint" />
            <mxPoint x="1040" y="-415.77" as="targetPoint" />
          </mxGeometry>
        </mxCell>
        <mxCell id="Il4vGaOlUkTPHnECqSVA-210" value="" style="shape=table;startSize=0;container=1;collapsible=0;childLayout=tableLayout;fontSize=16;fillColor=#bac8d3;strokeColor=#23445d;" vertex="1" parent="1">
          <mxGeometry x="90" y="-230" width="440" height="310" as="geometry" />
        </mxCell>
        <mxCell id="Il4vGaOlUkTPHnECqSVA-211" value="" style="shape=tableRow;horizontal=0;startSize=0;swimlaneHead=0;swimlaneBody=0;strokeColor=inherit;top=0;left=0;bottom=0;right=0;collapsible=0;dropTarget=0;fillColor=none;points=[[0,0.5],[1,0.5]];portConstraint=eastwest;fontSize=24;fontStyle=1" vertex="1" parent="Il4vGaOlUkTPHnECqSVA-210">
          <mxGeometry width="440" height="104" as="geometry" />
        </mxCell>
        <mxCell id="Il4vGaOlUkTPHnECqSVA-212" value="e^(s11-m_1)&lt;div&gt;——&lt;br&gt;&lt;div&gt;l_1&lt;/div&gt;&lt;/div&gt;" style="shape=partialRectangle;html=1;whiteSpace=wrap;connectable=0;strokeColor=inherit;overflow=hidden;fillColor=none;top=0;left=0;bottom=0;right=0;pointerEvents=1;fontSize=24;fontStyle=1" vertex="1" parent="Il4vGaOlUkTPHnECqSVA-211">
          <mxGeometry width="147" height="104" as="geometry">
            <mxRectangle width="147" height="104" as="alternateBounds" />
          </mxGeometry>
        </mxCell>
        <mxCell id="Il4vGaOlUkTPHnECqSVA-213" value="e^(s12-m_1)&lt;div&gt;——&lt;br&gt;&lt;div&gt;l_1&lt;/div&gt;&lt;/div&gt;" style="shape=partialRectangle;html=1;whiteSpace=wrap;connectable=0;strokeColor=inherit;overflow=hidden;fillColor=none;top=0;left=0;bottom=0;right=0;pointerEvents=1;fontSize=24;fontStyle=1" vertex="1" parent="Il4vGaOlUkTPHnECqSVA-211">
          <mxGeometry x="147" width="146" height="104" as="geometry">
            <mxRectangle width="146" height="104" as="alternateBounds" />
          </mxGeometry>
        </mxCell>
        <mxCell id="Il4vGaOlUkTPHnECqSVA-214" value="e^(s13-m_1)&lt;div&gt;——&lt;br&gt;&lt;div&gt;l_1&lt;/div&gt;&lt;/div&gt;" style="shape=partialRectangle;html=1;whiteSpace=wrap;connectable=0;strokeColor=inherit;overflow=hidden;fillColor=none;top=0;left=0;bottom=0;right=0;pointerEvents=1;fontSize=24;fontStyle=1" vertex="1" parent="Il4vGaOlUkTPHnECqSVA-211">
          <mxGeometry x="293" width="147" height="104" as="geometry">
            <mxRectangle width="147" height="104" as="alternateBounds" />
          </mxGeometry>
        </mxCell>
        <mxCell id="Il4vGaOlUkTPHnECqSVA-215" value="" style="shape=tableRow;horizontal=0;startSize=0;swimlaneHead=0;swimlaneBody=0;strokeColor=inherit;top=0;left=0;bottom=0;right=0;collapsible=0;dropTarget=0;fillColor=none;points=[[0,0.5],[1,0.5]];portConstraint=eastwest;fontSize=16;" vertex="1" parent="Il4vGaOlUkTPHnECqSVA-210">
          <mxGeometry y="104" width="440" height="102" as="geometry" />
        </mxCell>
        <mxCell id="Il4vGaOlUkTPHnECqSVA-216" value="" style="shape=partialRectangle;html=1;whiteSpace=wrap;connectable=0;strokeColor=inherit;overflow=hidden;fillColor=none;top=0;left=0;bottom=0;right=0;pointerEvents=1;fontSize=16;" vertex="1" parent="Il4vGaOlUkTPHnECqSVA-215">
          <mxGeometry width="147" height="102" as="geometry">
            <mxRectangle width="147" height="102" as="alternateBounds" />
          </mxGeometry>
        </mxCell>
        <mxCell id="Il4vGaOlUkTPHnECqSVA-217" value="" style="shape=partialRectangle;html=1;whiteSpace=wrap;connectable=0;strokeColor=inherit;overflow=hidden;fillColor=none;top=0;left=0;bottom=0;right=0;pointerEvents=1;fontSize=16;" vertex="1" parent="Il4vGaOlUkTPHnECqSVA-215">
          <mxGeometry x="147" width="146" height="102" as="geometry">
            <mxRectangle width="146" height="102" as="alternateBounds" />
          </mxGeometry>
        </mxCell>
        <mxCell id="Il4vGaOlUkTPHnECqSVA-218" value="" style="shape=partialRectangle;html=1;whiteSpace=wrap;connectable=0;strokeColor=inherit;overflow=hidden;fillColor=none;top=0;left=0;bottom=0;right=0;pointerEvents=1;fontSize=16;" vertex="1" parent="Il4vGaOlUkTPHnECqSVA-215">
          <mxGeometry x="293" width="147" height="102" as="geometry">
            <mxRectangle width="147" height="102" as="alternateBounds" />
          </mxGeometry>
        </mxCell>
        <mxCell id="Il4vGaOlUkTPHnECqSVA-219" value="" style="shape=tableRow;horizontal=0;startSize=0;swimlaneHead=0;swimlaneBody=0;strokeColor=inherit;top=0;left=0;bottom=0;right=0;collapsible=0;dropTarget=0;fillColor=none;points=[[0,0.5],[1,0.5]];portConstraint=eastwest;fontSize=16;" vertex="1" parent="Il4vGaOlUkTPHnECqSVA-210">
          <mxGeometry y="206" width="440" height="104" as="geometry" />
        </mxCell>
        <mxCell id="Il4vGaOlUkTPHnECqSVA-220" value="" style="shape=partialRectangle;html=1;whiteSpace=wrap;connectable=0;strokeColor=inherit;overflow=hidden;fillColor=none;top=0;left=0;bottom=0;right=0;pointerEvents=1;fontSize=16;" vertex="1" parent="Il4vGaOlUkTPHnECqSVA-219">
          <mxGeometry width="147" height="104" as="geometry">
            <mxRectangle width="147" height="104" as="alternateBounds" />
          </mxGeometry>
        </mxCell>
        <mxCell id="Il4vGaOlUkTPHnECqSVA-221" value="" style="shape=partialRectangle;html=1;whiteSpace=wrap;connectable=0;strokeColor=inherit;overflow=hidden;fillColor=none;top=0;left=0;bottom=0;right=0;pointerEvents=1;fontSize=16;" vertex="1" parent="Il4vGaOlUkTPHnECqSVA-219">
          <mxGeometry x="147" width="146" height="104" as="geometry">
            <mxRectangle width="146" height="104" as="alternateBounds" />
          </mxGeometry>
        </mxCell>
        <mxCell id="Il4vGaOlUkTPHnECqSVA-222" value="" style="shape=partialRectangle;html=1;whiteSpace=wrap;connectable=0;strokeColor=inherit;overflow=hidden;fillColor=none;top=0;left=0;bottom=0;right=0;pointerEvents=1;fontSize=16;" vertex="1" parent="Il4vGaOlUkTPHnECqSVA-219">
          <mxGeometry x="293" width="147" height="104" as="geometry">
            <mxRectangle width="147" height="104" as="alternateBounds" />
          </mxGeometry>
        </mxCell>
        <mxCell id="Il4vGaOlUkTPHnECqSVA-223" value="&lt;font style=&quot;font-size: 24px;&quot;&gt;&lt;b&gt;P_1_1&lt;/b&gt;&lt;/font&gt;" style="text;html=1;whiteSpace=wrap;strokeColor=none;fillColor=none;align=center;verticalAlign=middle;rounded=0;" vertex="1" parent="1">
          <mxGeometry x="250" y="-275" width="60" height="30" as="geometry" />
        </mxCell>
        <mxCell id="Il4vGaOlUkTPHnECqSVA-224" value="&lt;span style=&quot;font-size: 24px; font-weight: 700;&quot;&gt;P13*&lt;/span&gt;&lt;div style=&quot;font-size: 24px; font-weight: 700;&quot;&gt;&lt;span style=&quot;white-space: pre;&quot;&gt;&#x9;&lt;/span&gt;——×&lt;span style=&quot;font-size: 23px;&quot;&gt;V31&lt;/span&gt;&lt;br&gt;&lt;div&gt;l_1&lt;/div&gt;&lt;/div&gt;" style="text;html=1;whiteSpace=wrap;strokeColor=none;fillColor=none;align=center;verticalAlign=middle;rounded=0;" vertex="1" parent="1">
          <mxGeometry x="965" y="-100" width="190" height="90" as="geometry" />
        </mxCell>
        <mxCell id="Il4vGaOlUkTPHnECqSVA-225" value="&lt;span style=&quot;font-size: 24px;&quot;&gt;&lt;b&gt;P11*&lt;/b&gt;&lt;/span&gt;&lt;br&gt;&lt;div style=&quot;font-size: 24px; font-weight: 700;&quot;&gt;&lt;span style=&quot;white-space: pre;&quot;&gt;&#x9;&lt;/span&gt;——×&lt;span style=&quot;font-size: 23px;&quot;&gt;V11&lt;/span&gt;&lt;br&gt;&lt;div&gt;l_1&lt;/div&gt;&lt;/div&gt;" style="text;html=1;whiteSpace=wrap;strokeColor=none;fillColor=none;align=center;verticalAlign=middle;rounded=0;" vertex="1" parent="1">
          <mxGeometry x="960" y="-185" width="190" height="90" as="geometry" />
        </mxCell>
        <mxCell id="Il4vGaOlUkTPHnECqSVA-226" value="&lt;span style=&quot;font-size: 24px; font-weight: 700;&quot;&gt;P12*&lt;/span&gt;&lt;div style=&quot;font-size: 24px; font-weight: 700;&quot;&gt;&lt;span style=&quot;white-space: pre;&quot;&gt;&#x9;&lt;/span&gt;——×&lt;span style=&quot;font-size: 23px;&quot;&gt;V21&lt;/span&gt;&lt;br&gt;&lt;div&gt;l_1&lt;/div&gt;&lt;/div&gt;" style="text;html=1;whiteSpace=wrap;strokeColor=none;fillColor=none;align=center;verticalAlign=middle;rounded=0;" vertex="1" parent="1">
          <mxGeometry x="1110" y="-185" width="190" height="90" as="geometry" />
        </mxCell>
        <mxCell id="Il4vGaOlUkTPHnECqSVA-227" value="&lt;b style=&quot;&quot;&gt;&lt;font style=&quot;font-size: 31px;&quot;&gt;+&lt;/font&gt;&lt;/b&gt;" style="text;html=1;whiteSpace=wrap;strokeColor=none;fillColor=none;align=center;verticalAlign=middle;rounded=0;" vertex="1" parent="1">
          <mxGeometry x="1135" y="-160" width="30" height="40" as="geometry" />
        </mxCell>
        <mxCell id="Il4vGaOlUkTPHnECqSVA-228" value="&lt;b style=&quot;&quot;&gt;&lt;font style=&quot;font-size: 31px;&quot;&gt;+&lt;/font&gt;&lt;/b&gt;" style="text;html=1;whiteSpace=wrap;strokeColor=none;fillColor=none;align=center;verticalAlign=middle;rounded=0;" vertex="1" parent="1">
          <mxGeometry x="1270" y="-155" width="60" height="30" as="geometry" />
        </mxCell>
        <mxCell id="Il4vGaOlUkTPHnECqSVA-229" style="edgeStyle=orthogonalEdgeStyle;rounded=0;orthogonalLoop=1;jettySize=auto;html=1;entryX=0.523;entryY=-0.003;entryDx=0;entryDy=0;entryPerimeter=0;strokeWidth=4;" edge="1" parent="1" source="Il4vGaOlUkTPHnECqSVA-152" target="Il4vGaOlUkTPHnECqSVA-211">
          <mxGeometry relative="1" as="geometry" />
        </mxCell>
        <mxCell id="Il4vGaOlUkTPHnECqSVA-232" value="" style="group" vertex="1" connectable="0" parent="1">
          <mxGeometry x="990" y="240" width="670" height="220" as="geometry" />
        </mxCell>
        <mxCell id="Il4vGaOlUkTPHnECqSVA-98" value="&lt;font&gt;&lt;span&gt;l_2=&lt;/span&gt;&lt;/font&gt;&lt;div&gt;&lt;font style=&quot;background-color: transparent; color: light-dark(rgb(0, 0, 0), rgb(255, 255, 255));&quot;&gt;&lt;span&gt;e^(s14-&lt;/span&gt;&lt;span&gt;m&lt;/span&gt;&lt;span&gt;)+&lt;/span&gt;&lt;/font&gt;&lt;span style=&quot;background-color: transparent; color: light-dark(rgb(0, 0, 0), rgb(255, 255, 255));&quot;&gt;e^(s15-&lt;/span&gt;&lt;span style=&quot;background-color: transparent; color: light-dark(rgb(0, 0, 0), rgb(255, 255, 255));&quot;&gt;m&lt;/span&gt;&lt;span style=&quot;background-color: transparent; color: light-dark(rgb(0, 0, 0), rgb(255, 255, 255));&quot;&gt;)+&lt;/span&gt;&lt;span style=&quot;background-color: transparent; color: light-dark(rgb(0, 0, 0), rgb(255, 255, 255));&quot;&gt;e^(s16-&lt;/span&gt;&lt;span style=&quot;background-color: transparent; color: light-dark(rgb(0, 0, 0), rgb(255, 255, 255));&quot;&gt;m&lt;/span&gt;&lt;span style=&quot;background-color: transparent; color: light-dark(rgb(0, 0, 0), rgb(255, 255, 255));&quot;&gt;)&lt;/span&gt;&lt;/div&gt;" style="text;html=1;whiteSpace=wrap;strokeColor=none;fillColor=none;align=center;verticalAlign=middle;rounded=0;fontSize=30;fontStyle=1" vertex="1" parent="Il4vGaOlUkTPHnECqSVA-232">
          <mxGeometry x="40" y="55" width="630" height="90" as="geometry" />
        </mxCell>
        <mxCell id="Il4vGaOlUkTPHnECqSVA-233" style="edgeStyle=orthogonalEdgeStyle;rounded=0;orthogonalLoop=1;jettySize=auto;html=1;exitX=1;exitY=0.5;exitDx=0;exitDy=0;entryX=1;entryY=0.915;entryDx=0;entryDy=0;entryPerimeter=0;strokeWidth=4;" edge="1" parent="1" source="Il4vGaOlUkTPHnECqSVA-98" target="Il4vGaOlUkTPHnECqSVA-191">
          <mxGeometry relative="1" as="geometry" />
        </mxCell>
        <mxCell id="Il4vGaOlUkTPHnECqSVA-234" value="&lt;font style=&quot;font-size: 36px;&quot;&gt;&lt;b&gt;update&lt;/b&gt;&lt;/font&gt;" style="text;html=1;whiteSpace=wrap;strokeColor=none;fillColor=none;align=center;verticalAlign=middle;rounded=0;" vertex="1" parent="1">
          <mxGeometry x="1730" y="120" width="60" height="30" as="geometry" />
        </mxCell>
        <mxCell id="Il4vGaOlUkTPHnECqSVA-236" value="" style="shape=flexArrow;endArrow=classic;html=1;rounded=0;fillColor=light-dark(#0a0a0a, #ededed);" edge="1" parent="1">
          <mxGeometry width="50" height="50" relative="1" as="geometry">
            <mxPoint x="1570" y="-200" as="sourcePoint" />
            <mxPoint x="1740" y="-200" as="targetPoint" />
          </mxGeometry>
        </mxCell>
        <mxCell id="Il4vGaOlUkTPHnECqSVA-238" value="&lt;span style=&quot;font-weight: 700;&quot;&gt;P13*&lt;/span&gt;&lt;div style=&quot;font-weight: 700;&quot;&gt;&amp;nbsp; &amp;nbsp; &amp;nbsp; &amp;nbsp; &amp;nbsp; &amp;nbsp;——×&lt;span&gt;V31&amp;nbsp; }&lt;/span&gt;&lt;br&gt;&lt;div&gt;l_1&lt;/div&gt;&lt;/div&gt;" style="text;html=1;whiteSpace=wrap;strokeColor=none;fillColor=none;align=center;verticalAlign=middle;rounded=0;fontSize=30;" vertex="1" parent="1">
          <mxGeometry x="1690" y="-275" width="260" height="90" as="geometry" />
        </mxCell>
        <mxCell id="Il4vGaOlUkTPHnECqSVA-239" value="&lt;span style=&quot;font-weight: 700;&quot;&gt;P11*&lt;/span&gt;&lt;div style=&quot;font-weight: 700;&quot;&gt;{&amp;nbsp; &amp;nbsp; &amp;nbsp;——×&lt;span&gt;V11&lt;/span&gt;&lt;br&gt;&lt;div&gt;l_1&lt;/div&gt;&lt;/div&gt;" style="text;html=1;whiteSpace=wrap;strokeColor=none;fillColor=none;align=center;verticalAlign=middle;rounded=0;fontSize=30;" vertex="1" parent="1">
          <mxGeometry x="1770" y="-405" width="190" height="90" as="geometry" />
        </mxCell>
        <mxCell id="Il4vGaOlUkTPHnECqSVA-240" value="&lt;span style=&quot;font-weight: 700;&quot;&gt;P12*&lt;/span&gt;&lt;div style=&quot;font-weight: 700;&quot;&gt;&amp;nbsp; &amp;nbsp; &amp;nbsp; &amp;nbsp;——×&lt;span&gt;V21&lt;/span&gt;&lt;br&gt;&lt;div&gt;l_1&lt;/div&gt;&lt;/div&gt;" style="text;html=1;whiteSpace=wrap;strokeColor=none;fillColor=none;align=center;verticalAlign=middle;rounded=0;fontSize=30;" vertex="1" parent="1">
          <mxGeometry x="1955" y="-405" width="205" height="90" as="geometry" />
        </mxCell>
        <mxCell id="Il4vGaOlUkTPHnECqSVA-241" value="&lt;b&gt;&lt;font&gt;+&lt;/font&gt;&lt;/b&gt;" style="text;html=1;whiteSpace=wrap;strokeColor=none;fillColor=none;align=center;verticalAlign=middle;rounded=0;fontSize=30;" vertex="1" parent="1">
          <mxGeometry x="1955" y="-380" width="30" height="40" as="geometry" />
        </mxCell>
        <mxCell id="Il4vGaOlUkTPHnECqSVA-242" value="&lt;b&gt;&lt;font&gt;+&lt;/font&gt;&lt;/b&gt;" style="text;html=1;whiteSpace=wrap;strokeColor=none;fillColor=none;align=center;verticalAlign=middle;rounded=0;fontSize=30;" vertex="1" parent="1">
          <mxGeometry x="2145" y="-370" width="60" height="30" as="geometry" />
        </mxCell>
        <mxCell id="Il4vGaOlUkTPHnECqSVA-243" value="&lt;span style=&quot;font-weight: 700; background-color: transparent; color: light-dark(rgb(0, 0, 0), rgb(255, 255, 255));&quot;&gt;×&lt;/span&gt;&lt;span style=&quot;font-weight: 700; background-color: transparent; color: light-dark(rgb(0, 0, 0), rgb(255, 255, 255));&quot;&gt;l_1/l×(e^(m_1-m))&lt;/span&gt;" style="text;html=1;whiteSpace=wrap;strokeColor=none;fillColor=none;align=center;verticalAlign=middle;rounded=0;fontSize=30;" vertex="1" parent="1">
          <mxGeometry x="1950" y="-275" width="270" height="90" as="geometry" />
        </mxCell>
        <mxCell id="Il4vGaOlUkTPHnECqSVA-244" value="&lt;b&gt;=&lt;/b&gt;" style="text;html=1;whiteSpace=wrap;strokeColor=none;fillColor=none;align=center;verticalAlign=middle;rounded=0;fontSize=30;" vertex="1" parent="1">
          <mxGeometry x="1700" y="-170" width="100" height="50" as="geometry" />
        </mxCell>
        <mxCell id="Il4vGaOlUkTPHnECqSVA-245" value="&lt;span style=&quot;font-weight: 700;&quot;&gt;P13&lt;/span&gt;&lt;div style=&quot;font-weight: 700;&quot;&gt;&amp;nbsp; &amp;nbsp; &amp;nbsp; &amp;nbsp;——×&lt;span&gt;V31&lt;/span&gt;&lt;br&gt;&lt;div&gt;l&lt;/div&gt;&lt;/div&gt;" style="text;html=1;whiteSpace=wrap;strokeColor=none;fillColor=none;align=center;verticalAlign=middle;rounded=0;fontSize=30;" vertex="1" parent="1">
          <mxGeometry x="1730" y="-40" width="275" height="90" as="geometry" />
        </mxCell>
        <mxCell id="Il4vGaOlUkTPHnECqSVA-246" value="&lt;span style=&quot;font-weight: 700;&quot;&gt;P11&lt;/span&gt;&lt;div style=&quot;font-weight: 700;&quot;&gt;&amp;nbsp; &amp;nbsp; &amp;nbsp; &amp;nbsp;——×&lt;span&gt;V11&lt;/span&gt;&lt;br&gt;&lt;div&gt;l&lt;/div&gt;&lt;/div&gt;" style="text;html=1;whiteSpace=wrap;strokeColor=none;fillColor=none;align=center;verticalAlign=middle;rounded=0;fontSize=30;" vertex="1" parent="1">
          <mxGeometry x="1770" y="-160" width="190" height="90" as="geometry" />
        </mxCell>
        <mxCell id="Il4vGaOlUkTPHnECqSVA-247" value="&lt;span style=&quot;font-weight: 700;&quot;&gt;P12&lt;/span&gt;&lt;div style=&quot;font-weight: 700;&quot;&gt;&amp;nbsp; &amp;nbsp; &amp;nbsp; &amp;nbsp; ——×&lt;span&gt;V21&lt;/span&gt;&lt;br&gt;&lt;div&gt;l&lt;/div&gt;&lt;/div&gt;" style="text;html=1;whiteSpace=wrap;strokeColor=none;fillColor=none;align=center;verticalAlign=middle;rounded=0;fontSize=30;" vertex="1" parent="1">
          <mxGeometry x="1955" y="-160" width="205" height="90" as="geometry" />
        </mxCell>
        <mxCell id="Il4vGaOlUkTPHnECqSVA-248" value="&lt;b&gt;&lt;font&gt;+&lt;/font&gt;&lt;/b&gt;" style="text;html=1;whiteSpace=wrap;strokeColor=none;fillColor=none;align=center;verticalAlign=middle;rounded=0;fontSize=30;" vertex="1" parent="1">
          <mxGeometry x="1970" y="-135" width="30" height="40" as="geometry" />
        </mxCell>
        <mxCell id="Il4vGaOlUkTPHnECqSVA-249" value="&lt;b&gt;&lt;font&gt;+&lt;/font&gt;&lt;/b&gt;" style="text;html=1;whiteSpace=wrap;strokeColor=none;fillColor=none;align=center;verticalAlign=middle;rounded=0;fontSize=30;" vertex="1" parent="1">
          <mxGeometry x="2145" y="-125" width="60" height="30" as="geometry" />
        </mxCell>
        <mxCell id="Il4vGaOlUkTPHnECqSVA-255" value="" style="shape=singleArrow;whiteSpace=wrap;html=1;fillColor=#000000;" vertex="1" parent="1">
          <mxGeometry x="2190" y="150" width="140" height="55" as="geometry" />
        </mxCell>
        <mxCell id="Il4vGaOlUkTPHnECqSVA-309" value="" style="shape=table;startSize=0;container=1;collapsible=0;childLayout=tableLayout;fontSize=16;fillColor=#ffcccc;strokeColor=#36393d;" vertex="1" parent="1">
          <mxGeometry x="2340" y="120" width="240" height="120" as="geometry" />
        </mxCell>
        <mxCell id="Il4vGaOlUkTPHnECqSVA-310" value="" style="shape=tableRow;horizontal=0;startSize=0;swimlaneHead=0;swimlaneBody=0;strokeColor=inherit;top=0;left=0;bottom=0;right=0;collapsible=0;dropTarget=0;fillColor=none;points=[[0,0.5],[1,0.5]];portConstraint=eastwest;fontSize=16;" vertex="1" parent="Il4vGaOlUkTPHnECqSVA-309">
          <mxGeometry width="240" height="40" as="geometry" />
        </mxCell>
        <mxCell id="Il4vGaOlUkTPHnECqSVA-311" value="&lt;font style=&quot;font-size: 24px;&quot;&gt;&lt;b&gt;O11&lt;/b&gt;&lt;/font&gt;" style="shape=partialRectangle;html=1;whiteSpace=wrap;connectable=0;strokeColor=inherit;overflow=hidden;fillColor=none;top=0;left=0;bottom=0;right=0;pointerEvents=1;fontSize=16;" vertex="1" parent="Il4vGaOlUkTPHnECqSVA-310">
          <mxGeometry width="60" height="40" as="geometry">
            <mxRectangle width="60" height="40" as="alternateBounds" />
          </mxGeometry>
        </mxCell>
        <mxCell id="Il4vGaOlUkTPHnECqSVA-312" value="" style="shape=partialRectangle;html=1;whiteSpace=wrap;connectable=0;strokeColor=inherit;overflow=hidden;fillColor=none;top=0;left=0;bottom=0;right=0;pointerEvents=1;fontSize=16;" vertex="1" parent="Il4vGaOlUkTPHnECqSVA-310">
          <mxGeometry x="60" width="60" height="40" as="geometry">
            <mxRectangle width="60" height="40" as="alternateBounds" />
          </mxGeometry>
        </mxCell>
        <mxCell id="Il4vGaOlUkTPHnECqSVA-313" value="" style="shape=partialRectangle;html=1;whiteSpace=wrap;connectable=0;strokeColor=inherit;overflow=hidden;fillColor=none;top=0;left=0;bottom=0;right=0;pointerEvents=1;fontSize=16;" vertex="1" parent="Il4vGaOlUkTPHnECqSVA-310">
          <mxGeometry x="120" width="60" height="40" as="geometry">
            <mxRectangle width="60" height="40" as="alternateBounds" />
          </mxGeometry>
        </mxCell>
        <mxCell id="Il4vGaOlUkTPHnECqSVA-314" style="shape=partialRectangle;html=1;whiteSpace=wrap;connectable=0;strokeColor=inherit;overflow=hidden;fillColor=none;top=0;left=0;bottom=0;right=0;pointerEvents=1;fontSize=16;" vertex="1" parent="Il4vGaOlUkTPHnECqSVA-310">
          <mxGeometry x="180" width="60" height="40" as="geometry">
            <mxRectangle width="60" height="40" as="alternateBounds" />
          </mxGeometry>
        </mxCell>
        <mxCell id="Il4vGaOlUkTPHnECqSVA-315" value="" style="shape=tableRow;horizontal=0;startSize=0;swimlaneHead=0;swimlaneBody=0;strokeColor=inherit;top=0;left=0;bottom=0;right=0;collapsible=0;dropTarget=0;fillColor=none;points=[[0,0.5],[1,0.5]];portConstraint=eastwest;fontSize=16;" vertex="1" parent="Il4vGaOlUkTPHnECqSVA-309">
          <mxGeometry y="40" width="240" height="40" as="geometry" />
        </mxCell>
        <mxCell id="Il4vGaOlUkTPHnECqSVA-316" value="" style="shape=partialRectangle;html=1;whiteSpace=wrap;connectable=0;strokeColor=inherit;overflow=hidden;fillColor=none;top=0;left=0;bottom=0;right=0;pointerEvents=1;fontSize=16;" vertex="1" parent="Il4vGaOlUkTPHnECqSVA-315">
          <mxGeometry width="60" height="40" as="geometry">
            <mxRectangle width="60" height="40" as="alternateBounds" />
          </mxGeometry>
        </mxCell>
        <mxCell id="Il4vGaOlUkTPHnECqSVA-317" value="" style="shape=partialRectangle;html=1;whiteSpace=wrap;connectable=0;strokeColor=inherit;overflow=hidden;fillColor=none;top=0;left=0;bottom=0;right=0;pointerEvents=1;fontSize=16;" vertex="1" parent="Il4vGaOlUkTPHnECqSVA-315">
          <mxGeometry x="60" width="60" height="40" as="geometry">
            <mxRectangle width="60" height="40" as="alternateBounds" />
          </mxGeometry>
        </mxCell>
        <mxCell id="Il4vGaOlUkTPHnECqSVA-318" value="" style="shape=partialRectangle;html=1;whiteSpace=wrap;connectable=0;strokeColor=inherit;overflow=hidden;fillColor=none;top=0;left=0;bottom=0;right=0;pointerEvents=1;fontSize=16;" vertex="1" parent="Il4vGaOlUkTPHnECqSVA-315">
          <mxGeometry x="120" width="60" height="40" as="geometry">
            <mxRectangle width="60" height="40" as="alternateBounds" />
          </mxGeometry>
        </mxCell>
        <mxCell id="Il4vGaOlUkTPHnECqSVA-319" style="shape=partialRectangle;html=1;whiteSpace=wrap;connectable=0;strokeColor=inherit;overflow=hidden;fillColor=none;top=0;left=0;bottom=0;right=0;pointerEvents=1;fontSize=16;" vertex="1" parent="Il4vGaOlUkTPHnECqSVA-315">
          <mxGeometry x="180" width="60" height="40" as="geometry">
            <mxRectangle width="60" height="40" as="alternateBounds" />
          </mxGeometry>
        </mxCell>
        <mxCell id="Il4vGaOlUkTPHnECqSVA-320" value="" style="shape=tableRow;horizontal=0;startSize=0;swimlaneHead=0;swimlaneBody=0;strokeColor=inherit;top=0;left=0;bottom=0;right=0;collapsible=0;dropTarget=0;fillColor=none;points=[[0,0.5],[1,0.5]];portConstraint=eastwest;fontSize=16;" vertex="1" parent="Il4vGaOlUkTPHnECqSVA-309">
          <mxGeometry y="80" width="240" height="40" as="geometry" />
        </mxCell>
        <mxCell id="Il4vGaOlUkTPHnECqSVA-321" value="" style="shape=partialRectangle;html=1;whiteSpace=wrap;connectable=0;strokeColor=inherit;overflow=hidden;fillColor=none;top=0;left=0;bottom=0;right=0;pointerEvents=1;fontSize=16;" vertex="1" parent="Il4vGaOlUkTPHnECqSVA-320">
          <mxGeometry width="60" height="40" as="geometry">
            <mxRectangle width="60" height="40" as="alternateBounds" />
          </mxGeometry>
        </mxCell>
        <mxCell id="Il4vGaOlUkTPHnECqSVA-322" value="" style="shape=partialRectangle;html=1;whiteSpace=wrap;connectable=0;strokeColor=inherit;overflow=hidden;fillColor=none;top=0;left=0;bottom=0;right=0;pointerEvents=1;fontSize=16;" vertex="1" parent="Il4vGaOlUkTPHnECqSVA-320">
          <mxGeometry x="60" width="60" height="40" as="geometry">
            <mxRectangle width="60" height="40" as="alternateBounds" />
          </mxGeometry>
        </mxCell>
        <mxCell id="Il4vGaOlUkTPHnECqSVA-323" value="" style="shape=partialRectangle;html=1;whiteSpace=wrap;connectable=0;strokeColor=inherit;overflow=hidden;fillColor=none;top=0;left=0;bottom=0;right=0;pointerEvents=1;fontSize=16;" vertex="1" parent="Il4vGaOlUkTPHnECqSVA-320">
          <mxGeometry x="120" width="60" height="40" as="geometry">
            <mxRectangle width="60" height="40" as="alternateBounds" />
          </mxGeometry>
        </mxCell>
        <mxCell id="Il4vGaOlUkTPHnECqSVA-324" style="shape=partialRectangle;html=1;whiteSpace=wrap;connectable=0;strokeColor=inherit;overflow=hidden;fillColor=none;top=0;left=0;bottom=0;right=0;pointerEvents=1;fontSize=16;" vertex="1" parent="Il4vGaOlUkTPHnECqSVA-320">
          <mxGeometry x="180" width="60" height="40" as="geometry">
            <mxRectangle width="60" height="40" as="alternateBounds" />
          </mxGeometry>
        </mxCell>
        <mxCell id="Il4vGaOlUkTPHnECqSVA-341" value="&lt;font style=&quot;font-size: 36px;&quot;&gt;&lt;b style=&quot;&quot;&gt;O_1&lt;/b&gt;&lt;/font&gt;" style="text;html=1;whiteSpace=wrap;strokeColor=none;fillColor=none;align=center;verticalAlign=middle;rounded=0;" vertex="1" parent="1">
          <mxGeometry x="2420" y="60" width="60" height="30" as="geometry" />
        </mxCell>
        <mxCell id="Il4vGaOlUkTPHnECqSVA-342" value="&lt;span style=&quot;&quot;&gt;P11&lt;/span&gt;&lt;div style=&quot;&quot;&gt;——×&lt;span&gt;V11&lt;/span&gt;&lt;br&gt;&lt;div&gt;l&lt;/div&gt;&lt;/div&gt;" style="text;html=1;whiteSpace=wrap;strokeColor=none;fillColor=none;align=center;verticalAlign=middle;rounded=0;fontSize=30;fontStyle=1" vertex="1" parent="1">
          <mxGeometry x="2068" y="330" width="190" height="90" as="geometry" />
        </mxCell>
        <mxCell id="Il4vGaOlUkTPHnECqSVA-343" value="&lt;span style=&quot;&quot;&gt;P12&lt;/span&gt;&lt;div&gt;&lt;span style=&quot;background-color: transparent; color: light-dark(rgb(0, 0, 0), rgb(255, 255, 255));&quot;&gt;——×&lt;/span&gt;&lt;span style=&quot;background-color: transparent; color: light-dark(rgb(0, 0, 0), rgb(255, 255, 255));&quot;&gt;V21&lt;/span&gt;&lt;div style=&quot;&quot;&gt;&lt;div&gt;l&lt;/div&gt;&lt;/div&gt;&lt;/div&gt;" style="text;html=1;whiteSpace=wrap;strokeColor=none;fillColor=none;align=center;verticalAlign=middle;rounded=0;fontSize=30;fontStyle=1" vertex="1" parent="1">
          <mxGeometry x="2250" y="330" width="170" height="90" as="geometry" />
        </mxCell>
        <mxCell id="Il4vGaOlUkTPHnECqSVA-344" value="&lt;span style=&quot;&quot;&gt;P13&lt;/span&gt;&lt;div style=&quot;&quot;&gt;——×&lt;span&gt;V31&lt;/span&gt;&lt;br&gt;&lt;div&gt;l&lt;/div&gt;&lt;/div&gt;" style="text;html=1;whiteSpace=wrap;strokeColor=none;fillColor=none;align=center;verticalAlign=middle;rounded=0;fontSize=30;fontStyle=1" vertex="1" parent="1">
          <mxGeometry x="2400" y="330" width="190" height="90" as="geometry" />
        </mxCell>
        <mxCell id="Il4vGaOlUkTPHnECqSVA-345" value="&lt;span style=&quot;&quot;&gt;P15&lt;/span&gt;&lt;div style=&quot;&quot;&gt;——×&lt;span&gt;V51&lt;/span&gt;&lt;br&gt;&lt;div&gt;l&lt;/div&gt;&lt;/div&gt;" style="text;html=1;whiteSpace=wrap;strokeColor=none;fillColor=none;align=center;verticalAlign=middle;rounded=0;fontSize=30;fontStyle=1" vertex="1" parent="1">
          <mxGeometry x="2240" y="452.5" width="190" height="90" as="geometry" />
        </mxCell>
        <mxCell id="Il4vGaOlUkTPHnECqSVA-346" value="&lt;span style=&quot;&quot;&gt;P14&lt;/span&gt;&lt;div style=&quot;&quot;&gt;——×&lt;span&gt;V41&lt;/span&gt;&lt;br&gt;&lt;div&gt;l&lt;/div&gt;&lt;/div&gt;" style="text;html=1;whiteSpace=wrap;strokeColor=none;fillColor=none;align=center;verticalAlign=middle;rounded=0;fontSize=30;fontStyle=1" vertex="1" parent="1">
          <mxGeometry x="2075" y="452.5" width="190" height="90" as="geometry" />
        </mxCell>
        <mxCell id="Il4vGaOlUkTPHnECqSVA-347" value="&lt;span style=&quot;&quot;&gt;P16&lt;/span&gt;&lt;div style=&quot;&quot;&gt;——×&lt;span&gt;V11&lt;/span&gt;&lt;br&gt;&lt;div&gt;l&lt;/div&gt;&lt;/div&gt;" style="text;html=1;whiteSpace=wrap;strokeColor=none;fillColor=none;align=center;verticalAlign=middle;rounded=0;fontSize=30;fontStyle=1" vertex="1" parent="1">
          <mxGeometry x="2400" y="452.5" width="190" height="90" as="geometry" />
        </mxCell>
        <mxCell id="Il4vGaOlUkTPHnECqSVA-348" value="&lt;span&gt;&lt;font&gt;+&lt;/font&gt;&lt;/span&gt;" style="text;html=1;whiteSpace=wrap;strokeColor=none;fillColor=none;align=center;verticalAlign=middle;rounded=0;fontSize=30;fontStyle=1" vertex="1" parent="1">
          <mxGeometry x="2210" y="356.25" width="80" height="37.5" as="geometry" />
        </mxCell>
        <mxCell id="Il4vGaOlUkTPHnECqSVA-349" value="&lt;span&gt;&lt;font&gt;+&lt;/font&gt;&lt;/span&gt;" style="text;html=1;whiteSpace=wrap;strokeColor=none;fillColor=none;align=center;verticalAlign=middle;rounded=0;fontSize=30;fontStyle=1" vertex="1" parent="1">
          <mxGeometry x="2380" y="357.5" width="80" height="37.5" as="geometry" />
        </mxCell>
        <mxCell id="Il4vGaOlUkTPHnECqSVA-350" value="&lt;span&gt;&lt;font&gt;+&lt;/font&gt;&lt;/span&gt;" style="text;html=1;whiteSpace=wrap;strokeColor=none;fillColor=none;align=center;verticalAlign=middle;rounded=0;fontSize=30;fontStyle=1" vertex="1" parent="1">
          <mxGeometry x="2210" y="478.75" width="80" height="37.5" as="geometry" />
        </mxCell>
        <mxCell id="Il4vGaOlUkTPHnECqSVA-351" value="&lt;span&gt;&lt;font&gt;+&lt;/font&gt;&lt;/span&gt;" style="text;html=1;whiteSpace=wrap;strokeColor=none;fillColor=none;align=center;verticalAlign=middle;rounded=0;fontSize=30;fontStyle=1" vertex="1" parent="1">
          <mxGeometry x="2380" y="482.5" width="80" height="37.5" as="geometry" />
        </mxCell>
        <mxCell id="Il4vGaOlUkTPHnECqSVA-352" value="&lt;b&gt;o_1_shard_1+&lt;br&gt;o_1_shard_2&lt;/b&gt;" style="text;html=1;whiteSpace=wrap;strokeColor=none;fillColor=none;align=center;verticalAlign=middle;rounded=0;fontSize=30;" vertex="1" parent="1">
          <mxGeometry x="1910" y="120" width="275" height="90" as="geometry" />
        </mxCell>
        <mxCell id="Il4vGaOlUkTPHnECqSVA-353" value="&lt;b&gt;O11 =&lt;/b&gt;" style="text;html=1;whiteSpace=wrap;strokeColor=none;fillColor=none;align=center;verticalAlign=middle;rounded=0;fontSize=30;" vertex="1" parent="1">
          <mxGeometry x="1860" y="395" width="275" height="90" as="geometry" />
        </mxCell>
        <mxCell id="Il4vGaOlUkTPHnECqSVA-43" value="&lt;font&gt;&lt;span&gt;m_2=s14&lt;/span&gt;&lt;/font&gt;&lt;div&gt;&lt;span&gt;&lt;span&gt;s14&amp;gt;s11&lt;/span&gt;&lt;/span&gt;&lt;/div&gt;&lt;div&gt;&lt;span&gt;&lt;span&gt;m=s14&lt;/span&gt;&lt;/span&gt;&lt;/div&gt;" style="text;html=1;whiteSpace=wrap;strokeColor=none;fillColor=none;align=center;verticalAlign=middle;rounded=0;fontSize=30;fontStyle=1" vertex="1" parent="1">
          <mxGeometry x="1290" y="195" width="90" height="40" as="geometry" />
        </mxCell>
        <mxCell id="Il4vGaOlUkTPHnECqSVA-44" value="&lt;font&gt;&lt;span&gt;l=&lt;/span&gt;&lt;/font&gt;&lt;div&gt;&lt;span&gt;l_1*(e^(m_1-m))+&lt;/span&gt;&lt;span&gt;&lt;span&gt;&lt;br&gt;&lt;/span&gt;&lt;/span&gt;&lt;div&gt;&lt;span&gt;&lt;span&gt;l_2*(&lt;/span&gt;&lt;/span&gt;&lt;span style=&quot;background-color: transparent; color: light-dark(rgb(0, 0, 0), rgb(255, 255, 255));&quot;&gt;e^(m_1-m)&lt;/span&gt;&lt;span style=&quot;background-color: transparent; color: light-dark(rgb(0, 0, 0), rgb(255, 255, 255));&quot;&gt;)&lt;/span&gt;&lt;/div&gt;&lt;/div&gt;" style="text;html=1;whiteSpace=wrap;strokeColor=none;fillColor=none;align=center;verticalAlign=middle;rounded=0;fontSize=30;fontStyle=1" vertex="1" parent="1">
          <mxGeometry x="1000" y="400" width="630" height="90" as="geometry" />
        </mxCell>
      </root>
    </mxGraphModel>
  </diagram>
</mxfile>
